<mxfile host="app.diagrams.net" modified="2023-12-11T23:46:30.194Z" agent="Mozilla/5.0 (Macintosh; Intel Mac OS X 10_15_7) AppleWebKit/537.36 (KHTML, like Gecko) Chrome/119.0.0.0 Safari/537.36" etag="QIVsbvsEoPS-T4vWiduO" version="22.1.7" type="github">
  <diagram name="arsi -berjalan" id="NJvHbYUtmTnHZ8qLv1Gm">
    <mxGraphModel dx="1194" dy="760" grid="1" gridSize="10" guides="1" tooltips="1" connect="1" arrows="1" fold="1" page="1" pageScale="1" pageWidth="827" pageHeight="1169" math="0" shadow="0">
      <root>
        <mxCell id="0" />
        <mxCell id="1" parent="0" />
        <mxCell id="jcb7iHF1FWQuhyqtT_9i-1" value="Pelanggan" style="swimlane;whiteSpace=wrap;html=1;" vertex="1" parent="1">
          <mxGeometry x="80" y="80" width="200" height="940" as="geometry" />
        </mxCell>
        <mxCell id="jcb7iHF1FWQuhyqtT_9i-131" style="edgeStyle=orthogonalEdgeStyle;rounded=0;orthogonalLoop=1;jettySize=auto;html=1;exitX=0.5;exitY=1;exitDx=0;exitDy=0;entryX=0.5;entryY=0;entryDx=0;entryDy=0;" edge="1" parent="jcb7iHF1FWQuhyqtT_9i-1" source="jcb7iHF1FWQuhyqtT_9i-12" target="jcb7iHF1FWQuhyqtT_9i-31">
          <mxGeometry relative="1" as="geometry" />
        </mxCell>
        <mxCell id="jcb7iHF1FWQuhyqtT_9i-12" value="&lt;span style=&quot;color: rgb(0, 0, 0); font-family: Helvetica; font-size: 16px; font-style: normal; font-variant-ligatures: normal; font-variant-caps: normal; font-weight: 400; letter-spacing: normal; orphans: 2; text-align: center; text-indent: 0px; text-transform: none; widows: 2; word-spacing: 0px; -webkit-text-stroke-width: 0px; background-color: rgb(251, 251, 251); text-decoration-thickness: initial; text-decoration-style: initial; text-decoration-color: initial; float: none; display: inline !important;&quot;&gt;Mendatangi coffee shop&lt;/span&gt;" style="rounded=0;whiteSpace=wrap;html=1;" vertex="1" parent="jcb7iHF1FWQuhyqtT_9i-1">
          <mxGeometry x="39.5" y="109" width="120" height="60" as="geometry" />
        </mxCell>
        <mxCell id="jcb7iHF1FWQuhyqtT_9i-14" value="&lt;span style=&quot;color: rgb(0, 0, 0); font-family: Helvetica; font-size: 16px; font-style: normal; font-variant-ligatures: normal; font-variant-caps: normal; font-weight: 400; letter-spacing: normal; orphans: 2; text-align: center; text-indent: 0px; text-transform: none; widows: 2; word-spacing: 0px; -webkit-text-stroke-width: 0px; background-color: rgb(251, 251, 251); text-decoration-thickness: initial; text-decoration-style: initial; text-decoration-color: initial; float: none; display: inline !important;&quot;&gt;Memesan produk&lt;/span&gt;" style="rounded=0;whiteSpace=wrap;html=1;" vertex="1" parent="jcb7iHF1FWQuhyqtT_9i-1">
          <mxGeometry x="41.27" y="291" width="120" height="60" as="geometry" />
        </mxCell>
        <mxCell id="jcb7iHF1FWQuhyqtT_9i-19" style="edgeStyle=orthogonalEdgeStyle;rounded=0;orthogonalLoop=1;jettySize=auto;html=1;entryX=0.5;entryY=0;entryDx=0;entryDy=0;" edge="1" parent="jcb7iHF1FWQuhyqtT_9i-1" source="jcb7iHF1FWQuhyqtT_9i-20" target="jcb7iHF1FWQuhyqtT_9i-12">
          <mxGeometry relative="1" as="geometry" />
        </mxCell>
        <mxCell id="jcb7iHF1FWQuhyqtT_9i-20" value="start" style="rounded=1;whiteSpace=wrap;html=1;" vertex="1" parent="jcb7iHF1FWQuhyqtT_9i-1">
          <mxGeometry x="59" y="40" width="80" height="40" as="geometry" />
        </mxCell>
        <mxCell id="jcb7iHF1FWQuhyqtT_9i-133" style="edgeStyle=orthogonalEdgeStyle;rounded=0;orthogonalLoop=1;jettySize=auto;html=1;exitX=0.5;exitY=1;exitDx=0;exitDy=0;entryX=0.5;entryY=0;entryDx=0;entryDy=0;" edge="1" parent="jcb7iHF1FWQuhyqtT_9i-1" source="jcb7iHF1FWQuhyqtT_9i-31" target="jcb7iHF1FWQuhyqtT_9i-14">
          <mxGeometry relative="1" as="geometry" />
        </mxCell>
        <mxCell id="jcb7iHF1FWQuhyqtT_9i-31" value="&lt;span style=&quot;color: rgb(0, 0, 0); font-family: Helvetica; font-size: 16px; font-style: normal; font-variant-ligatures: normal; font-variant-caps: normal; font-weight: 400; letter-spacing: normal; orphans: 2; text-align: center; text-indent: 0px; text-transform: none; widows: 2; word-spacing: 0px; -webkit-text-stroke-width: 0px; background-color: rgb(251, 251, 251); text-decoration-thickness: initial; text-decoration-style: initial; text-decoration-color: initial; float: none; display: inline !important;&quot;&gt;Melakukan antrian&lt;/span&gt;" style="rounded=0;whiteSpace=wrap;html=1;" vertex="1" parent="jcb7iHF1FWQuhyqtT_9i-1">
          <mxGeometry x="40" y="200" width="120" height="60" as="geometry" />
        </mxCell>
        <mxCell id="jcb7iHF1FWQuhyqtT_9i-77" value="&lt;span style=&quot;color: rgb(0, 0, 0); font-family: Helvetica; font-size: 16px; font-style: normal; font-variant-ligatures: normal; font-variant-caps: normal; font-weight: 400; letter-spacing: normal; orphans: 2; text-align: center; text-indent: 0px; text-transform: none; widows: 2; word-spacing: 0px; -webkit-text-stroke-width: 0px; background-color: rgb(251, 251, 251); text-decoration-thickness: initial; text-decoration-style: initial; text-decoration-color: initial; float: none; display: inline !important;&quot;&gt;Melakukan pembayaran&lt;/span&gt;" style="rounded=0;whiteSpace=wrap;html=1;" vertex="1" parent="jcb7iHF1FWQuhyqtT_9i-1">
          <mxGeometry x="40" y="381" width="120" height="60" as="geometry" />
        </mxCell>
        <mxCell id="jcb7iHF1FWQuhyqtT_9i-93" style="edgeStyle=orthogonalEdgeStyle;rounded=0;orthogonalLoop=1;jettySize=auto;html=1;exitX=0.5;exitY=1;exitDx=0;exitDy=0;" edge="1" parent="jcb7iHF1FWQuhyqtT_9i-1" source="jcb7iHF1FWQuhyqtT_9i-79" target="jcb7iHF1FWQuhyqtT_9i-88">
          <mxGeometry relative="1" as="geometry" />
        </mxCell>
        <mxCell id="jcb7iHF1FWQuhyqtT_9i-79" value="&lt;span style=&quot;color: rgb(0, 0, 0); font-family: Helvetica; font-size: 16px; font-style: normal; font-variant-ligatures: normal; font-variant-caps: normal; font-weight: 400; letter-spacing: normal; orphans: 2; text-align: center; text-indent: 0px; text-transform: none; widows: 2; word-spacing: 0px; -webkit-text-stroke-width: 0px; background-color: rgb(251, 251, 251); text-decoration-thickness: initial; text-decoration-style: initial; text-decoration-color: initial; float: none; display: inline !important;&quot;&gt;Mengambil pesanan&lt;/span&gt;" style="rounded=0;whiteSpace=wrap;html=1;" vertex="1" parent="jcb7iHF1FWQuhyqtT_9i-1">
          <mxGeometry x="40" y="661" width="120" height="60" as="geometry" />
        </mxCell>
        <mxCell id="jcb7iHF1FWQuhyqtT_9i-88" value="&lt;span style=&quot;color: rgb(0, 0, 0); font-family: Helvetica; font-size: 16px; font-style: normal; font-variant-ligatures: normal; font-variant-caps: normal; font-weight: 400; letter-spacing: normal; orphans: 2; text-align: center; text-indent: 0px; text-transform: none; widows: 2; word-spacing: 0px; -webkit-text-stroke-width: 0px; background-color: rgb(251, 251, 251); text-decoration-thickness: initial; text-decoration-style: initial; text-decoration-color: initial; float: none; display: inline !important;&quot;&gt;Memilih tempat duduk atau dibawa pulang&lt;/span&gt;" style="rounded=0;whiteSpace=wrap;html=1;" vertex="1" parent="jcb7iHF1FWQuhyqtT_9i-1">
          <mxGeometry x="34.5" y="760" width="131" height="70" as="geometry" />
        </mxCell>
        <mxCell id="jcb7iHF1FWQuhyqtT_9i-21" value="Kasir" style="swimlane;whiteSpace=wrap;html=1;" vertex="1" parent="1">
          <mxGeometry x="280" y="80" width="200" height="940" as="geometry" />
        </mxCell>
        <mxCell id="jcb7iHF1FWQuhyqtT_9i-70" value="&lt;span style=&quot;font-size: 16px;&quot;&gt;Mencatat Form pesanan&lt;/span&gt;" style="shape=document;whiteSpace=wrap;html=1;boundedLbl=1;" vertex="1" parent="jcb7iHF1FWQuhyqtT_9i-21">
          <mxGeometry x="53.75" y="305" width="92" height="40" as="geometry" />
        </mxCell>
        <mxCell id="jcb7iHF1FWQuhyqtT_9i-76" style="edgeStyle=orthogonalEdgeStyle;rounded=0;orthogonalLoop=1;jettySize=auto;html=1;exitX=0.5;exitY=1;exitDx=0;exitDy=0;" edge="1" parent="jcb7iHF1FWQuhyqtT_9i-21" source="jcb7iHF1FWQuhyqtT_9i-74" target="jcb7iHF1FWQuhyqtT_9i-15">
          <mxGeometry relative="1" as="geometry" />
        </mxCell>
        <mxCell id="jcb7iHF1FWQuhyqtT_9i-74" value="&lt;span style=&quot;color: rgb(0, 0, 0); font-family: Helvetica; font-size: 16px; font-style: normal; font-variant-ligatures: normal; font-variant-caps: normal; font-weight: 400; letter-spacing: normal; orphans: 2; text-align: center; text-indent: 0px; text-transform: none; widows: 2; word-spacing: 0px; -webkit-text-stroke-width: 0px; background-color: rgb(251, 251, 251); text-decoration-thickness: initial; text-decoration-style: initial; text-decoration-color: initial; float: none; display: inline !important;&quot;&gt;Mencatat&lt;br&gt;&amp;nbsp;pesanan&lt;/span&gt;" style="shape=trapezoid;perimeter=trapezoidPerimeter;whiteSpace=wrap;html=1;fixedSize=1;" vertex="1" parent="jcb7iHF1FWQuhyqtT_9i-21">
          <mxGeometry x="32.5" y="289" width="135" height="60" as="geometry" />
        </mxCell>
        <mxCell id="jcb7iHF1FWQuhyqtT_9i-46" value="end" style="rounded=1;whiteSpace=wrap;html=1;" vertex="1" parent="jcb7iHF1FWQuhyqtT_9i-21">
          <mxGeometry x="68.11999999999999" y="881" width="68.75" height="40" as="geometry" />
        </mxCell>
        <mxCell id="jcb7iHF1FWQuhyqtT_9i-15" value="&lt;span style=&quot;color: rgb(0, 0, 0); font-family: Helvetica; font-size: 16px; font-style: normal; font-variant-ligatures: normal; font-variant-caps: normal; font-weight: 400; letter-spacing: normal; orphans: 2; text-align: center; text-indent: 0px; text-transform: none; widows: 2; word-spacing: 0px; -webkit-text-stroke-width: 0px; background-color: rgb(251, 251, 251); text-decoration-thickness: initial; text-decoration-style: initial; text-decoration-color: initial; float: none; display: inline !important;&quot;&gt;Mengkonfirmasi Pesanan&lt;/span&gt;" style="rounded=0;whiteSpace=wrap;html=1;" vertex="1" parent="jcb7iHF1FWQuhyqtT_9i-21">
          <mxGeometry x="40" y="381" width="120" height="60" as="geometry" />
        </mxCell>
        <mxCell id="jcb7iHF1FWQuhyqtT_9i-85" style="edgeStyle=orthogonalEdgeStyle;rounded=0;orthogonalLoop=1;jettySize=auto;html=1;exitX=0.5;exitY=1;exitDx=0;exitDy=0;" edge="1" parent="jcb7iHF1FWQuhyqtT_9i-21" source="jcb7iHF1FWQuhyqtT_9i-81" target="jcb7iHF1FWQuhyqtT_9i-84">
          <mxGeometry relative="1" as="geometry" />
        </mxCell>
        <mxCell id="jcb7iHF1FWQuhyqtT_9i-81" value="&lt;span style=&quot;color: rgb(0, 0, 0); font-family: Helvetica; font-size: 16px; font-style: normal; font-variant-ligatures: normal; font-variant-caps: normal; font-weight: 400; letter-spacing: normal; orphans: 2; text-align: center; text-indent: 0px; text-transform: none; widows: 2; word-spacing: 0px; -webkit-text-stroke-width: 0px; background-color: rgb(251, 251, 251); text-decoration-thickness: initial; text-decoration-style: initial; text-decoration-color: initial; float: none; display: inline !important;&quot;&gt;Pembayaran diterima&lt;/span&gt;" style="rounded=0;whiteSpace=wrap;html=1;" vertex="1" parent="jcb7iHF1FWQuhyqtT_9i-21">
          <mxGeometry x="40" y="471" width="120" height="60" as="geometry" />
        </mxCell>
        <mxCell id="jcb7iHF1FWQuhyqtT_9i-97" style="edgeStyle=orthogonalEdgeStyle;rounded=0;orthogonalLoop=1;jettySize=auto;html=1;exitX=0.5;exitY=1;exitDx=0;exitDy=0;entryX=0.5;entryY=0;entryDx=0;entryDy=0;" edge="1" parent="jcb7iHF1FWQuhyqtT_9i-21" source="jcb7iHF1FWQuhyqtT_9i-84" target="jcb7iHF1FWQuhyqtT_9i-86">
          <mxGeometry relative="1" as="geometry" />
        </mxCell>
        <mxCell id="jcb7iHF1FWQuhyqtT_9i-84" value="&lt;span style=&quot;color: rgb(0, 0, 0); font-family: Helvetica; font-size: 16px; font-style: normal; font-variant-ligatures: normal; font-variant-caps: normal; font-weight: 400; letter-spacing: normal; orphans: 2; text-align: center; text-indent: 0px; text-transform: none; widows: 2; word-spacing: 0px; -webkit-text-stroke-width: 0px; background-color: rgb(251, 251, 251); text-decoration-thickness: initial; text-decoration-style: initial; text-decoration-color: initial; float: none; display: inline !important;&quot;&gt;Membuatkan pesanan&lt;/span&gt;" style="rounded=0;whiteSpace=wrap;html=1;" vertex="1" parent="jcb7iHF1FWQuhyqtT_9i-21">
          <mxGeometry x="40" y="565" width="120" height="60" as="geometry" />
        </mxCell>
        <mxCell id="jcb7iHF1FWQuhyqtT_9i-86" value="&lt;span style=&quot;color: rgb(0, 0, 0); font-family: Helvetica; font-size: 16px; font-style: normal; font-variant-ligatures: normal; font-variant-caps: normal; font-weight: 400; letter-spacing: normal; orphans: 2; text-align: center; text-indent: 0px; text-transform: none; widows: 2; word-spacing: 0px; -webkit-text-stroke-width: 0px; background-color: rgb(251, 251, 251); text-decoration-thickness: initial; text-decoration-style: initial; text-decoration-color: initial; float: none; display: inline !important;&quot;&gt;Pesanan selesai dibuat&lt;/span&gt;" style="rounded=0;whiteSpace=wrap;html=1;" vertex="1" parent="jcb7iHF1FWQuhyqtT_9i-21">
          <mxGeometry x="40" y="661" width="120" height="60" as="geometry" />
        </mxCell>
        <mxCell id="jcb7iHF1FWQuhyqtT_9i-134" style="edgeStyle=orthogonalEdgeStyle;rounded=0;orthogonalLoop=1;jettySize=auto;html=1;exitX=0.5;exitY=1;exitDx=0;exitDy=0;" edge="1" parent="jcb7iHF1FWQuhyqtT_9i-21" source="jcb7iHF1FWQuhyqtT_9i-94" target="jcb7iHF1FWQuhyqtT_9i-46">
          <mxGeometry relative="1" as="geometry" />
        </mxCell>
        <mxCell id="jcb7iHF1FWQuhyqtT_9i-94" value="&lt;span style=&quot;color: rgb(0, 0, 0); font-family: Helvetica; font-size: 16px; font-style: normal; font-variant-ligatures: normal; font-variant-caps: normal; font-weight: 400; letter-spacing: normal; orphans: 2; text-align: center; text-indent: 0px; text-transform: none; widows: 2; word-spacing: 0px; -webkit-text-stroke-width: 0px; background-color: rgb(251, 251, 251); text-decoration-thickness: initial; text-decoration-style: initial; text-decoration-color: initial; float: none; display: inline !important;&quot;&gt;Menghitung jumlah pesanan&lt;/span&gt;" style="rounded=0;whiteSpace=wrap;html=1;" vertex="1" parent="jcb7iHF1FWQuhyqtT_9i-21">
          <mxGeometry x="37.5" y="760" width="130" height="70" as="geometry" />
        </mxCell>
        <mxCell id="jcb7iHF1FWQuhyqtT_9i-69" style="edgeStyle=orthogonalEdgeStyle;rounded=0;orthogonalLoop=1;jettySize=auto;html=1;exitX=1;exitY=0.5;exitDx=0;exitDy=0;entryX=0.069;entryY=0.533;entryDx=0;entryDy=0;entryPerimeter=0;" edge="1" parent="1" source="jcb7iHF1FWQuhyqtT_9i-14" target="jcb7iHF1FWQuhyqtT_9i-74">
          <mxGeometry relative="1" as="geometry">
            <mxPoint x="201.26999999999998" y="401" as="sourcePoint" />
            <mxPoint x="310" y="401" as="targetPoint" />
          </mxGeometry>
        </mxCell>
        <mxCell id="jcb7iHF1FWQuhyqtT_9i-78" style="edgeStyle=orthogonalEdgeStyle;rounded=0;orthogonalLoop=1;jettySize=auto;html=1;exitX=0;exitY=0.5;exitDx=0;exitDy=0;entryX=1;entryY=0.5;entryDx=0;entryDy=0;" edge="1" parent="1" source="jcb7iHF1FWQuhyqtT_9i-15" target="jcb7iHF1FWQuhyqtT_9i-77">
          <mxGeometry relative="1" as="geometry" />
        </mxCell>
        <mxCell id="jcb7iHF1FWQuhyqtT_9i-83" style="edgeStyle=orthogonalEdgeStyle;rounded=0;orthogonalLoop=1;jettySize=auto;html=1;exitX=0.5;exitY=1;exitDx=0;exitDy=0;entryX=0;entryY=0.5;entryDx=0;entryDy=0;" edge="1" parent="1" source="jcb7iHF1FWQuhyqtT_9i-77" target="jcb7iHF1FWQuhyqtT_9i-81">
          <mxGeometry relative="1" as="geometry" />
        </mxCell>
        <mxCell id="jcb7iHF1FWQuhyqtT_9i-87" style="edgeStyle=orthogonalEdgeStyle;rounded=0;orthogonalLoop=1;jettySize=auto;html=1;exitX=0;exitY=0.5;exitDx=0;exitDy=0;entryX=1;entryY=0.5;entryDx=0;entryDy=0;" edge="1" parent="1" source="jcb7iHF1FWQuhyqtT_9i-86" target="jcb7iHF1FWQuhyqtT_9i-79">
          <mxGeometry relative="1" as="geometry" />
        </mxCell>
        <mxCell id="jcb7iHF1FWQuhyqtT_9i-99" value="Pelanggan" style="swimlane;whiteSpace=wrap;html=1;" vertex="1" parent="1">
          <mxGeometry x="570" y="80" width="200" height="1130" as="geometry" />
        </mxCell>
        <mxCell id="jcb7iHF1FWQuhyqtT_9i-100" value="&lt;span style=&quot;color: rgb(0, 0, 0); font-family: Helvetica; font-size: 16px; font-style: normal; font-variant-ligatures: normal; font-variant-caps: normal; font-weight: 400; letter-spacing: normal; orphans: 2; text-align: center; text-indent: 0px; text-transform: none; widows: 2; word-spacing: 0px; -webkit-text-stroke-width: 0px; background-color: rgb(251, 251, 251); text-decoration-thickness: initial; text-decoration-style: initial; text-decoration-color: initial; float: none; display: inline !important;&quot;&gt;Mendatangi coffee shop&lt;/span&gt;" style="rounded=0;whiteSpace=wrap;html=1;" vertex="1" parent="jcb7iHF1FWQuhyqtT_9i-99">
          <mxGeometry x="38.5" y="140" width="120" height="60" as="geometry" />
        </mxCell>
        <mxCell id="jcb7iHF1FWQuhyqtT_9i-101" value="&lt;span style=&quot;color: rgb(0, 0, 0); font-family: Helvetica; font-size: 16px; font-style: normal; font-variant-ligatures: normal; font-variant-caps: normal; font-weight: 400; letter-spacing: normal; orphans: 2; text-align: center; text-indent: 0px; text-transform: none; widows: 2; word-spacing: 0px; -webkit-text-stroke-width: 0px; background-color: rgb(251, 251, 251); text-decoration-thickness: initial; text-decoration-style: initial; text-decoration-color: initial; float: none; display: inline !important;&quot;&gt;Memesan produk&lt;/span&gt;" style="rounded=0;whiteSpace=wrap;html=1;" vertex="1" parent="jcb7iHF1FWQuhyqtT_9i-99">
          <mxGeometry x="41.27" y="342" width="120" height="60" as="geometry" />
        </mxCell>
        <mxCell id="jcb7iHF1FWQuhyqtT_9i-102" style="edgeStyle=orthogonalEdgeStyle;rounded=0;orthogonalLoop=1;jettySize=auto;html=1;entryX=0.5;entryY=0;entryDx=0;entryDy=0;" edge="1" parent="jcb7iHF1FWQuhyqtT_9i-99" source="jcb7iHF1FWQuhyqtT_9i-103" target="jcb7iHF1FWQuhyqtT_9i-100">
          <mxGeometry relative="1" as="geometry" />
        </mxCell>
        <mxCell id="jcb7iHF1FWQuhyqtT_9i-103" value="start" style="rounded=1;whiteSpace=wrap;html=1;" vertex="1" parent="jcb7iHF1FWQuhyqtT_9i-99">
          <mxGeometry x="59" y="50" width="80" height="40" as="geometry" />
        </mxCell>
        <mxCell id="jcb7iHF1FWQuhyqtT_9i-104" value="&lt;span style=&quot;color: rgb(0, 0, 0); font-family: Helvetica; font-size: 16px; font-style: normal; font-variant-ligatures: normal; font-variant-caps: normal; font-weight: 400; letter-spacing: normal; orphans: 2; text-align: center; text-indent: 0px; text-transform: none; widows: 2; word-spacing: 0px; -webkit-text-stroke-width: 0px; background-color: rgb(251, 251, 251); text-decoration-thickness: initial; text-decoration-style: initial; text-decoration-color: initial; float: none; display: inline !important;&quot;&gt;Melakukan antrian&lt;/span&gt;" style="rounded=0;whiteSpace=wrap;html=1;" vertex="1" parent="jcb7iHF1FWQuhyqtT_9i-99">
          <mxGeometry x="40" y="240" width="120" height="60" as="geometry" />
        </mxCell>
        <mxCell id="jcb7iHF1FWQuhyqtT_9i-105" style="edgeStyle=orthogonalEdgeStyle;rounded=0;orthogonalLoop=1;jettySize=auto;html=1;exitX=0.5;exitY=1;exitDx=0;exitDy=0;entryX=0.464;entryY=-0.017;entryDx=0;entryDy=0;entryPerimeter=0;" edge="1" parent="jcb7iHF1FWQuhyqtT_9i-99">
          <mxGeometry relative="1" as="geometry">
            <mxPoint x="102.5" y="200" as="sourcePoint" />
            <mxPoint x="99.68000000000006" y="238.98000000000002" as="targetPoint" />
          </mxGeometry>
        </mxCell>
        <mxCell id="jcb7iHF1FWQuhyqtT_9i-106" style="edgeStyle=orthogonalEdgeStyle;rounded=0;orthogonalLoop=1;jettySize=auto;html=1;exitX=0.5;exitY=1;exitDx=0;exitDy=0;entryX=0.448;entryY=-0.05;entryDx=0;entryDy=0;entryPerimeter=0;" edge="1" parent="jcb7iHF1FWQuhyqtT_9i-99">
          <mxGeometry relative="1" as="geometry">
            <mxPoint x="107" y="300" as="sourcePoint" />
            <mxPoint x="102.02999999999997" y="339" as="targetPoint" />
          </mxGeometry>
        </mxCell>
        <mxCell id="jcb7iHF1FWQuhyqtT_9i-107" value="&lt;span style=&quot;color: rgb(0, 0, 0); font-family: Helvetica; font-size: 16px; font-style: normal; font-variant-ligatures: normal; font-variant-caps: normal; font-weight: 400; letter-spacing: normal; orphans: 2; text-align: center; text-indent: 0px; text-transform: none; widows: 2; word-spacing: 0px; -webkit-text-stroke-width: 0px; background-color: rgb(251, 251, 251); text-decoration-thickness: initial; text-decoration-style: initial; text-decoration-color: initial; float: none; display: inline !important;&quot;&gt;Melakukan pembayaran&lt;/span&gt;" style="rounded=0;whiteSpace=wrap;html=1;" vertex="1" parent="jcb7iHF1FWQuhyqtT_9i-99">
          <mxGeometry x="40" y="450" width="120" height="60" as="geometry" />
        </mxCell>
        <mxCell id="jcb7iHF1FWQuhyqtT_9i-108" style="edgeStyle=orthogonalEdgeStyle;rounded=0;orthogonalLoop=1;jettySize=auto;html=1;exitX=0.5;exitY=1;exitDx=0;exitDy=0;" edge="1" parent="jcb7iHF1FWQuhyqtT_9i-99" source="jcb7iHF1FWQuhyqtT_9i-109" target="jcb7iHF1FWQuhyqtT_9i-110">
          <mxGeometry relative="1" as="geometry" />
        </mxCell>
        <mxCell id="jcb7iHF1FWQuhyqtT_9i-109" value="&lt;span style=&quot;color: rgb(0, 0, 0); font-family: Helvetica; font-size: 16px; font-style: normal; font-variant-ligatures: normal; font-variant-caps: normal; font-weight: 400; letter-spacing: normal; orphans: 2; text-align: center; text-indent: 0px; text-transform: none; widows: 2; word-spacing: 0px; -webkit-text-stroke-width: 0px; background-color: rgb(251, 251, 251); text-decoration-thickness: initial; text-decoration-style: initial; text-decoration-color: initial; float: none; display: inline !important;&quot;&gt;Mengambil pesanan&lt;/span&gt;" style="rounded=0;whiteSpace=wrap;html=1;" vertex="1" parent="jcb7iHF1FWQuhyqtT_9i-99">
          <mxGeometry x="40" y="776" width="120" height="60" as="geometry" />
        </mxCell>
        <mxCell id="jcb7iHF1FWQuhyqtT_9i-110" value="&lt;span style=&quot;color: rgb(0, 0, 0); font-family: Helvetica; font-size: 16px; font-style: normal; font-variant-ligatures: normal; font-variant-caps: normal; font-weight: 400; letter-spacing: normal; orphans: 2; text-align: center; text-indent: 0px; text-transform: none; widows: 2; word-spacing: 0px; -webkit-text-stroke-width: 0px; background-color: rgb(251, 251, 251); text-decoration-thickness: initial; text-decoration-style: initial; text-decoration-color: initial; float: none; display: inline !important;&quot;&gt;Memilih tempat duduk atau dibawa pulang&lt;/span&gt;" style="rounded=0;whiteSpace=wrap;html=1;" vertex="1" parent="jcb7iHF1FWQuhyqtT_9i-99">
          <mxGeometry x="34.5" y="900" width="131" height="70" as="geometry" />
        </mxCell>
        <mxCell id="jcb7iHF1FWQuhyqtT_9i-111" value="Kasir" style="swimlane;whiteSpace=wrap;html=1;" vertex="1" parent="1">
          <mxGeometry x="770" y="80" width="200" height="1130" as="geometry" />
        </mxCell>
        <mxCell id="jcb7iHF1FWQuhyqtT_9i-112" value="&lt;span style=&quot;font-size: 16px;&quot;&gt;Mencatat Form pesanan&lt;/span&gt;" style="shape=document;whiteSpace=wrap;html=1;boundedLbl=1;" vertex="1" parent="jcb7iHF1FWQuhyqtT_9i-111">
          <mxGeometry x="53.75" y="356" width="92" height="40" as="geometry" />
        </mxCell>
        <mxCell id="jcb7iHF1FWQuhyqtT_9i-113" style="edgeStyle=orthogonalEdgeStyle;rounded=0;orthogonalLoop=1;jettySize=auto;html=1;exitX=0.5;exitY=1;exitDx=0;exitDy=0;" edge="1" parent="jcb7iHF1FWQuhyqtT_9i-111" source="jcb7iHF1FWQuhyqtT_9i-114" target="jcb7iHF1FWQuhyqtT_9i-116">
          <mxGeometry relative="1" as="geometry" />
        </mxCell>
        <mxCell id="jcb7iHF1FWQuhyqtT_9i-114" value="&lt;span style=&quot;color: rgb(0, 0, 0); font-family: Helvetica; font-size: 16px; font-style: normal; font-variant-ligatures: normal; font-variant-caps: normal; font-weight: 400; letter-spacing: normal; orphans: 2; text-align: center; text-indent: 0px; text-transform: none; widows: 2; word-spacing: 0px; -webkit-text-stroke-width: 0px; background-color: rgb(251, 251, 251); text-decoration-thickness: initial; text-decoration-style: initial; text-decoration-color: initial; float: none; display: inline !important;&quot;&gt;Mencatat&lt;br&gt;&amp;nbsp;pesanan&lt;/span&gt;" style="shape=trapezoid;perimeter=trapezoidPerimeter;whiteSpace=wrap;html=1;fixedSize=1;" vertex="1" parent="jcb7iHF1FWQuhyqtT_9i-111">
          <mxGeometry x="32.5" y="340" width="135" height="60" as="geometry" />
        </mxCell>
        <mxCell id="jcb7iHF1FWQuhyqtT_9i-115" value="end" style="rounded=1;whiteSpace=wrap;html=1;" vertex="1" parent="jcb7iHF1FWQuhyqtT_9i-111">
          <mxGeometry x="65.63" y="1033" width="68.75" height="40" as="geometry" />
        </mxCell>
        <mxCell id="jcb7iHF1FWQuhyqtT_9i-116" value="&lt;span style=&quot;color: rgb(0, 0, 0); font-family: Helvetica; font-size: 16px; font-style: normal; font-variant-ligatures: normal; font-variant-caps: normal; font-weight: 400; letter-spacing: normal; orphans: 2; text-align: center; text-indent: 0px; text-transform: none; widows: 2; word-spacing: 0px; -webkit-text-stroke-width: 0px; background-color: rgb(251, 251, 251); text-decoration-thickness: initial; text-decoration-style: initial; text-decoration-color: initial; float: none; display: inline !important;&quot;&gt;Mengkonfirmasi Pesanan&lt;/span&gt;" style="rounded=0;whiteSpace=wrap;html=1;" vertex="1" parent="jcb7iHF1FWQuhyqtT_9i-111">
          <mxGeometry x="40" y="450" width="120" height="60" as="geometry" />
        </mxCell>
        <mxCell id="jcb7iHF1FWQuhyqtT_9i-117" style="edgeStyle=orthogonalEdgeStyle;rounded=0;orthogonalLoop=1;jettySize=auto;html=1;exitX=0.5;exitY=1;exitDx=0;exitDy=0;" edge="1" parent="jcb7iHF1FWQuhyqtT_9i-111" source="jcb7iHF1FWQuhyqtT_9i-118" target="jcb7iHF1FWQuhyqtT_9i-120">
          <mxGeometry relative="1" as="geometry" />
        </mxCell>
        <mxCell id="jcb7iHF1FWQuhyqtT_9i-118" value="&lt;span style=&quot;color: rgb(0, 0, 0); font-family: Helvetica; font-size: 16px; font-style: normal; font-variant-ligatures: normal; font-variant-caps: normal; font-weight: 400; letter-spacing: normal; orphans: 2; text-align: center; text-indent: 0px; text-transform: none; widows: 2; word-spacing: 0px; -webkit-text-stroke-width: 0px; background-color: rgb(251, 251, 251); text-decoration-thickness: initial; text-decoration-style: initial; text-decoration-color: initial; float: none; display: inline !important;&quot;&gt;Pembayaran diterima&lt;/span&gt;" style="rounded=0;whiteSpace=wrap;html=1;" vertex="1" parent="jcb7iHF1FWQuhyqtT_9i-111">
          <mxGeometry x="40" y="560" width="120" height="60" as="geometry" />
        </mxCell>
        <mxCell id="jcb7iHF1FWQuhyqtT_9i-119" style="edgeStyle=orthogonalEdgeStyle;rounded=0;orthogonalLoop=1;jettySize=auto;html=1;exitX=0.5;exitY=1;exitDx=0;exitDy=0;entryX=0.5;entryY=0;entryDx=0;entryDy=0;" edge="1" parent="jcb7iHF1FWQuhyqtT_9i-111" source="jcb7iHF1FWQuhyqtT_9i-120" target="jcb7iHF1FWQuhyqtT_9i-121">
          <mxGeometry relative="1" as="geometry" />
        </mxCell>
        <mxCell id="jcb7iHF1FWQuhyqtT_9i-120" value="&lt;span style=&quot;color: rgb(0, 0, 0); font-family: Helvetica; font-size: 16px; font-style: normal; font-variant-ligatures: normal; font-variant-caps: normal; font-weight: 400; letter-spacing: normal; orphans: 2; text-align: center; text-indent: 0px; text-transform: none; widows: 2; word-spacing: 0px; -webkit-text-stroke-width: 0px; background-color: rgb(251, 251, 251); text-decoration-thickness: initial; text-decoration-style: initial; text-decoration-color: initial; float: none; display: inline !important;&quot;&gt;Membuatkan pesanan&lt;/span&gt;" style="rounded=0;whiteSpace=wrap;html=1;" vertex="1" parent="jcb7iHF1FWQuhyqtT_9i-111">
          <mxGeometry x="40" y="680" width="120" height="60" as="geometry" />
        </mxCell>
        <mxCell id="jcb7iHF1FWQuhyqtT_9i-121" value="&lt;span style=&quot;color: rgb(0, 0, 0); font-family: Helvetica; font-size: 16px; font-style: normal; font-variant-ligatures: normal; font-variant-caps: normal; font-weight: 400; letter-spacing: normal; orphans: 2; text-align: center; text-indent: 0px; text-transform: none; widows: 2; word-spacing: 0px; -webkit-text-stroke-width: 0px; background-color: rgb(251, 251, 251); text-decoration-thickness: initial; text-decoration-style: initial; text-decoration-color: initial; float: none; display: inline !important;&quot;&gt;Pesanan selesai dibuatkan&lt;/span&gt;" style="rounded=0;whiteSpace=wrap;html=1;" vertex="1" parent="jcb7iHF1FWQuhyqtT_9i-111">
          <mxGeometry x="40" y="776" width="120" height="60" as="geometry" />
        </mxCell>
        <mxCell id="jcb7iHF1FWQuhyqtT_9i-122" style="edgeStyle=orthogonalEdgeStyle;rounded=0;orthogonalLoop=1;jettySize=auto;html=1;exitX=0.5;exitY=1;exitDx=0;exitDy=0;" edge="1" parent="jcb7iHF1FWQuhyqtT_9i-111" source="jcb7iHF1FWQuhyqtT_9i-123">
          <mxGeometry relative="1" as="geometry">
            <mxPoint x="102.86956521739148" y="1079.9999999999998" as="targetPoint" />
          </mxGeometry>
        </mxCell>
        <mxCell id="jcb7iHF1FWQuhyqtT_9i-123" value="&lt;span style=&quot;color: rgb(0, 0, 0); font-family: Helvetica; font-size: 16px; font-style: normal; font-variant-ligatures: normal; font-variant-caps: normal; font-weight: 400; letter-spacing: normal; orphans: 2; text-align: center; text-indent: 0px; text-transform: none; widows: 2; word-spacing: 0px; -webkit-text-stroke-width: 0px; background-color: rgb(251, 251, 251); text-decoration-thickness: initial; text-decoration-style: initial; text-decoration-color: initial; float: none; display: inline !important;&quot;&gt;Menghitung jumlah pesanan&lt;/span&gt;" style="rounded=0;whiteSpace=wrap;html=1;" vertex="1" parent="jcb7iHF1FWQuhyqtT_9i-111">
          <mxGeometry x="37.5" y="900" width="130" height="70" as="geometry" />
        </mxCell>
        <mxCell id="jcb7iHF1FWQuhyqtT_9i-124" value="Admin" style="swimlane;whiteSpace=wrap;html=1;startSize=23;" vertex="1" parent="1">
          <mxGeometry x="970" y="80" width="200" height="1130" as="geometry" />
        </mxCell>
        <mxCell id="jcb7iHF1FWQuhyqtT_9i-125" value="&lt;span style=&quot;color: rgb(0, 0, 0); font-family: Helvetica; font-size: 16px; font-style: normal; font-variant-ligatures: normal; font-variant-caps: normal; font-weight: 400; letter-spacing: normal; orphans: 2; text-align: center; text-indent: 0px; text-transform: none; widows: 2; word-spacing: 0px; -webkit-text-stroke-width: 0px; background-color: rgb(251, 251, 251); text-decoration-thickness: initial; text-decoration-style: initial; text-decoration-color: initial; float: none; display: inline !important;&quot;&gt;Menerima catatan jumlah pesanan&lt;/span&gt;" style="rounded=0;whiteSpace=wrap;html=1;" vertex="1" parent="jcb7iHF1FWQuhyqtT_9i-124">
          <mxGeometry x="32.5" y="900" width="135" height="70" as="geometry" />
        </mxCell>
        <mxCell id="jcb7iHF1FWQuhyqtT_9i-126" style="edgeStyle=orthogonalEdgeStyle;rounded=0;orthogonalLoop=1;jettySize=auto;html=1;exitX=1;exitY=0.5;exitDx=0;exitDy=0;entryX=0.069;entryY=0.533;entryDx=0;entryDy=0;entryPerimeter=0;" edge="1" parent="1" source="jcb7iHF1FWQuhyqtT_9i-101" target="jcb7iHF1FWQuhyqtT_9i-114">
          <mxGeometry relative="1" as="geometry">
            <mxPoint x="691.27" y="452" as="sourcePoint" />
            <mxPoint x="800" y="452" as="targetPoint" />
          </mxGeometry>
        </mxCell>
        <mxCell id="jcb7iHF1FWQuhyqtT_9i-127" style="edgeStyle=orthogonalEdgeStyle;rounded=0;orthogonalLoop=1;jettySize=auto;html=1;exitX=0;exitY=0.5;exitDx=0;exitDy=0;entryX=1;entryY=0.5;entryDx=0;entryDy=0;" edge="1" parent="1" source="jcb7iHF1FWQuhyqtT_9i-116" target="jcb7iHF1FWQuhyqtT_9i-107">
          <mxGeometry relative="1" as="geometry" />
        </mxCell>
        <mxCell id="jcb7iHF1FWQuhyqtT_9i-128" style="edgeStyle=orthogonalEdgeStyle;rounded=0;orthogonalLoop=1;jettySize=auto;html=1;exitX=0.5;exitY=1;exitDx=0;exitDy=0;entryX=0;entryY=0.5;entryDx=0;entryDy=0;" edge="1" parent="1" source="jcb7iHF1FWQuhyqtT_9i-107" target="jcb7iHF1FWQuhyqtT_9i-118">
          <mxGeometry relative="1" as="geometry" />
        </mxCell>
        <mxCell id="jcb7iHF1FWQuhyqtT_9i-129" style="edgeStyle=orthogonalEdgeStyle;rounded=0;orthogonalLoop=1;jettySize=auto;html=1;exitX=0;exitY=0.5;exitDx=0;exitDy=0;entryX=1;entryY=0.5;entryDx=0;entryDy=0;" edge="1" parent="1" source="jcb7iHF1FWQuhyqtT_9i-121" target="jcb7iHF1FWQuhyqtT_9i-109">
          <mxGeometry relative="1" as="geometry" />
        </mxCell>
        <mxCell id="jcb7iHF1FWQuhyqtT_9i-130" style="edgeStyle=orthogonalEdgeStyle;rounded=0;orthogonalLoop=1;jettySize=auto;html=1;exitX=0.5;exitY=1;exitDx=0;exitDy=0;entryX=0;entryY=0.5;entryDx=0;entryDy=0;" edge="1" parent="1" source="jcb7iHF1FWQuhyqtT_9i-88" target="jcb7iHF1FWQuhyqtT_9i-46">
          <mxGeometry relative="1" as="geometry" />
        </mxCell>
        <mxCell id="jcb7iHF1FWQuhyqtT_9i-187" value="Pelanggan" style="swimlane;whiteSpace=wrap;html=1;" vertex="1" parent="1">
          <mxGeometry x="1360" y="80" width="390" height="1380" as="geometry" />
        </mxCell>
        <mxCell id="jcb7iHF1FWQuhyqtT_9i-188" value="" style="edgeStyle=orthogonalEdgeStyle;rounded=0;orthogonalLoop=1;jettySize=auto;html=1;" edge="1" parent="jcb7iHF1FWQuhyqtT_9i-187">
          <mxGeometry relative="1" as="geometry">
            <mxPoint x="206" y="119.00000000000006" as="targetPoint" />
            <mxPoint x="206" y="91" as="sourcePoint" />
          </mxGeometry>
        </mxCell>
        <mxCell id="jcb7iHF1FWQuhyqtT_9i-189" value="Start" style="rounded=1;whiteSpace=wrap;html=1;" vertex="1" parent="jcb7iHF1FWQuhyqtT_9i-187">
          <mxGeometry x="171" y="50" width="70" height="40" as="geometry" />
        </mxCell>
        <mxCell id="jcb7iHF1FWQuhyqtT_9i-190" value="" style="edgeStyle=orthogonalEdgeStyle;rounded=0;orthogonalLoop=1;jettySize=auto;html=1;" edge="1" parent="jcb7iHF1FWQuhyqtT_9i-187" source="jcb7iHF1FWQuhyqtT_9i-191" target="jcb7iHF1FWQuhyqtT_9i-193">
          <mxGeometry relative="1" as="geometry" />
        </mxCell>
        <mxCell id="jcb7iHF1FWQuhyqtT_9i-191" value="Menampilkan halaman home" style="rounded=0;whiteSpace=wrap;html=1;" vertex="1" parent="jcb7iHF1FWQuhyqtT_9i-187">
          <mxGeometry x="146" y="119" width="120" height="60" as="geometry" />
        </mxCell>
        <mxCell id="jcb7iHF1FWQuhyqtT_9i-192" value="" style="edgeStyle=orthogonalEdgeStyle;rounded=0;orthogonalLoop=1;jettySize=auto;html=1;" edge="1" parent="jcb7iHF1FWQuhyqtT_9i-187" source="jcb7iHF1FWQuhyqtT_9i-193" target="jcb7iHF1FWQuhyqtT_9i-195">
          <mxGeometry relative="1" as="geometry" />
        </mxCell>
        <mxCell id="jcb7iHF1FWQuhyqtT_9i-193" value="Masuk ke &lt;br&gt;halaman produk" style="rhombus;whiteSpace=wrap;html=1;rounded=0;" vertex="1" parent="jcb7iHF1FWQuhyqtT_9i-187">
          <mxGeometry x="131" y="208" width="149" height="72" as="geometry" />
        </mxCell>
        <mxCell id="jcb7iHF1FWQuhyqtT_9i-194" value="" style="edgeStyle=orthogonalEdgeStyle;rounded=0;orthogonalLoop=1;jettySize=auto;html=1;" edge="1" parent="jcb7iHF1FWQuhyqtT_9i-187" source="jcb7iHF1FWQuhyqtT_9i-195" target="jcb7iHF1FWQuhyqtT_9i-197">
          <mxGeometry relative="1" as="geometry" />
        </mxCell>
        <mxCell id="jcb7iHF1FWQuhyqtT_9i-195" value="Menampilkan halaman produk" style="whiteSpace=wrap;html=1;rounded=0;" vertex="1" parent="jcb7iHF1FWQuhyqtT_9i-187">
          <mxGeometry x="145" y="320" width="120" height="60" as="geometry" />
        </mxCell>
        <mxCell id="jcb7iHF1FWQuhyqtT_9i-196" value="" style="edgeStyle=orthogonalEdgeStyle;rounded=0;orthogonalLoop=1;jettySize=auto;html=1;" edge="1" parent="jcb7iHF1FWQuhyqtT_9i-187" source="jcb7iHF1FWQuhyqtT_9i-197" target="jcb7iHF1FWQuhyqtT_9i-200">
          <mxGeometry relative="1" as="geometry" />
        </mxCell>
        <mxCell id="jcb7iHF1FWQuhyqtT_9i-197" value="Pilih produk" style="rhombus;whiteSpace=wrap;html=1;rounded=0;" vertex="1" parent="jcb7iHF1FWQuhyqtT_9i-187">
          <mxGeometry x="158" y="414" width="94" height="62" as="geometry" />
        </mxCell>
        <mxCell id="jcb7iHF1FWQuhyqtT_9i-198" value="" style="edgeStyle=orthogonalEdgeStyle;rounded=0;orthogonalLoop=1;jettySize=auto;html=1;" edge="1" parent="jcb7iHF1FWQuhyqtT_9i-187" source="jcb7iHF1FWQuhyqtT_9i-200" target="jcb7iHF1FWQuhyqtT_9i-202">
          <mxGeometry relative="1" as="geometry" />
        </mxCell>
        <mxCell id="jcb7iHF1FWQuhyqtT_9i-199" value="yes" style="edgeLabel;html=1;align=center;verticalAlign=middle;resizable=0;points=[];" connectable="0" vertex="1" parent="jcb7iHF1FWQuhyqtT_9i-198">
          <mxGeometry x="0.068" y="2" relative="1" as="geometry">
            <mxPoint as="offset" />
          </mxGeometry>
        </mxCell>
        <mxCell id="jcb7iHF1FWQuhyqtT_9i-200" value="&lt;br&gt;Apakah sudah login?" style="rhombus;whiteSpace=wrap;html=1;rounded=0;" vertex="1" parent="jcb7iHF1FWQuhyqtT_9i-187">
          <mxGeometry x="152" y="515" width="105" height="71" as="geometry" />
        </mxCell>
        <mxCell id="jcb7iHF1FWQuhyqtT_9i-201" style="edgeStyle=orthogonalEdgeStyle;rounded=0;orthogonalLoop=1;jettySize=auto;html=1;entryX=0.5;entryY=0;entryDx=0;entryDy=0;" edge="1" parent="jcb7iHF1FWQuhyqtT_9i-187" source="jcb7iHF1FWQuhyqtT_9i-202" target="jcb7iHF1FWQuhyqtT_9i-217">
          <mxGeometry relative="1" as="geometry" />
        </mxCell>
        <mxCell id="jcb7iHF1FWQuhyqtT_9i-202" value="Menampilkan form pesanan produk&amp;nbsp;" style="whiteSpace=wrap;html=1;rounded=0;" vertex="1" parent="jcb7iHF1FWQuhyqtT_9i-187">
          <mxGeometry x="226" y="635" width="120" height="60" as="geometry" />
        </mxCell>
        <mxCell id="jcb7iHF1FWQuhyqtT_9i-203" value="" style="edgeStyle=orthogonalEdgeStyle;rounded=0;orthogonalLoop=1;jettySize=auto;html=1;" edge="1" parent="jcb7iHF1FWQuhyqtT_9i-187" source="jcb7iHF1FWQuhyqtT_9i-204" target="jcb7iHF1FWQuhyqtT_9i-211">
          <mxGeometry relative="1" as="geometry" />
        </mxCell>
        <mxCell id="jcb7iHF1FWQuhyqtT_9i-204" value="Menampilkan pop up login terlebih dahulu" style="rounded=0;whiteSpace=wrap;html=1;" vertex="1" parent="jcb7iHF1FWQuhyqtT_9i-187">
          <mxGeometry x="65" y="635" width="120" height="60" as="geometry" />
        </mxCell>
        <mxCell id="jcb7iHF1FWQuhyqtT_9i-205" style="edgeStyle=orthogonalEdgeStyle;rounded=0;orthogonalLoop=1;jettySize=auto;html=1;" edge="1" parent="jcb7iHF1FWQuhyqtT_9i-187" source="jcb7iHF1FWQuhyqtT_9i-200" target="jcb7iHF1FWQuhyqtT_9i-204">
          <mxGeometry relative="1" as="geometry">
            <mxPoint x="116" y="668" as="targetPoint" />
          </mxGeometry>
        </mxCell>
        <mxCell id="jcb7iHF1FWQuhyqtT_9i-206" value="&amp;nbsp;no" style="edgeLabel;html=1;align=center;verticalAlign=middle;resizable=0;points=[];" connectable="0" vertex="1" parent="jcb7iHF1FWQuhyqtT_9i-205">
          <mxGeometry x="0.0444" y="2" relative="1" as="geometry">
            <mxPoint x="-5" y="-4" as="offset" />
          </mxGeometry>
        </mxCell>
        <mxCell id="jcb7iHF1FWQuhyqtT_9i-207" value="" style="edgeStyle=orthogonalEdgeStyle;rounded=0;orthogonalLoop=1;jettySize=auto;html=1;" edge="1" parent="jcb7iHF1FWQuhyqtT_9i-187" source="jcb7iHF1FWQuhyqtT_9i-211">
          <mxGeometry relative="1" as="geometry">
            <mxPoint x="125" y="830" as="targetPoint" />
          </mxGeometry>
        </mxCell>
        <mxCell id="jcb7iHF1FWQuhyqtT_9i-208" value="yes" style="edgeLabel;html=1;align=center;verticalAlign=middle;resizable=0;points=[];" connectable="0" vertex="1" parent="jcb7iHF1FWQuhyqtT_9i-207">
          <mxGeometry x="-0.2722" y="1" relative="1" as="geometry">
            <mxPoint as="offset" />
          </mxGeometry>
        </mxCell>
        <mxCell id="jcb7iHF1FWQuhyqtT_9i-209" style="edgeStyle=orthogonalEdgeStyle;rounded=0;orthogonalLoop=1;jettySize=auto;html=1;exitX=0;exitY=0.5;exitDx=0;exitDy=0;entryX=0;entryY=0.5;entryDx=0;entryDy=0;" edge="1" parent="jcb7iHF1FWQuhyqtT_9i-187" source="jcb7iHF1FWQuhyqtT_9i-211" target="jcb7iHF1FWQuhyqtT_9i-195">
          <mxGeometry relative="1" as="geometry">
            <Array as="points">
              <mxPoint x="46" y="751" />
              <mxPoint x="46" y="350" />
            </Array>
          </mxGeometry>
        </mxCell>
        <mxCell id="jcb7iHF1FWQuhyqtT_9i-210" value="no" style="edgeLabel;html=1;align=center;verticalAlign=middle;resizable=0;points=[];" connectable="0" vertex="1" parent="jcb7iHF1FWQuhyqtT_9i-209">
          <mxGeometry x="-0.7899" y="-1" relative="1" as="geometry">
            <mxPoint y="-1" as="offset" />
          </mxGeometry>
        </mxCell>
        <mxCell id="jcb7iHF1FWQuhyqtT_9i-211" value="Pilih opsi login?" style="rhombus;whiteSpace=wrap;html=1;rounded=0;" vertex="1" parent="jcb7iHF1FWQuhyqtT_9i-187">
          <mxGeometry x="78" y="723" width="95" height="55" as="geometry" />
        </mxCell>
        <mxCell id="jcb7iHF1FWQuhyqtT_9i-212" value="" style="edgeStyle=orthogonalEdgeStyle;rounded=0;orthogonalLoop=1;jettySize=auto;html=1;" edge="1" parent="jcb7iHF1FWQuhyqtT_9i-187" source="jcb7iHF1FWQuhyqtT_9i-213" target="jcb7iHF1FWQuhyqtT_9i-215">
          <mxGeometry relative="1" as="geometry" />
        </mxCell>
        <mxCell id="jcb7iHF1FWQuhyqtT_9i-213" value="Menampilkan halaman login" style="whiteSpace=wrap;html=1;rounded=0;" vertex="1" parent="jcb7iHF1FWQuhyqtT_9i-187">
          <mxGeometry x="65" y="830" width="120" height="60" as="geometry" />
        </mxCell>
        <mxCell id="jcb7iHF1FWQuhyqtT_9i-214" style="edgeStyle=orthogonalEdgeStyle;rounded=0;orthogonalLoop=1;jettySize=auto;html=1;entryX=0;entryY=0.5;entryDx=0;entryDy=0;" edge="1" parent="jcb7iHF1FWQuhyqtT_9i-187">
          <mxGeometry relative="1" as="geometry">
            <Array as="points">
              <mxPoint x="26" y="952" />
              <mxPoint x="26" y="150" />
            </Array>
            <mxPoint x="75.66666666666652" y="952" as="sourcePoint" />
            <mxPoint x="146" y="150" as="targetPoint" />
          </mxGeometry>
        </mxCell>
        <mxCell id="jcb7iHF1FWQuhyqtT_9i-215" value="input data &lt;br&gt;login dan &lt;br&gt;klik submit" style="shape=parallelogram;perimeter=parallelogramPerimeter;whiteSpace=wrap;html=1;fixedSize=1;rounded=0;" vertex="1" parent="jcb7iHF1FWQuhyqtT_9i-187">
          <mxGeometry x="65" y="922" width="120" height="60" as="geometry" />
        </mxCell>
        <mxCell id="jcb7iHF1FWQuhyqtT_9i-216" value="" style="edgeStyle=orthogonalEdgeStyle;rounded=0;orthogonalLoop=1;jettySize=auto;html=1;" edge="1" parent="jcb7iHF1FWQuhyqtT_9i-187" source="jcb7iHF1FWQuhyqtT_9i-217" target="jcb7iHF1FWQuhyqtT_9i-222">
          <mxGeometry relative="1" as="geometry" />
        </mxCell>
        <mxCell id="jcb7iHF1FWQuhyqtT_9i-217" value="Mengisi formulir" style="shape=parallelogram;perimeter=parallelogramPerimeter;whiteSpace=wrap;html=1;fixedSize=1;" vertex="1" parent="jcb7iHF1FWQuhyqtT_9i-187">
          <mxGeometry x="226" y="723" width="120" height="60" as="geometry" />
        </mxCell>
        <mxCell id="jcb7iHF1FWQuhyqtT_9i-218" value="" style="edgeStyle=orthogonalEdgeStyle;rounded=0;orthogonalLoop=1;jettySize=auto;html=1;" edge="1" parent="jcb7iHF1FWQuhyqtT_9i-187" source="jcb7iHF1FWQuhyqtT_9i-222">
          <mxGeometry relative="1" as="geometry">
            <mxPoint x="286" y="948" as="targetPoint" />
          </mxGeometry>
        </mxCell>
        <mxCell id="jcb7iHF1FWQuhyqtT_9i-219" value="yes" style="edgeLabel;html=1;align=center;verticalAlign=middle;resizable=0;points=[];" connectable="0" vertex="1" parent="jcb7iHF1FWQuhyqtT_9i-218">
          <mxGeometry x="0.43" y="-1" relative="1" as="geometry">
            <mxPoint y="-17" as="offset" />
          </mxGeometry>
        </mxCell>
        <mxCell id="jcb7iHF1FWQuhyqtT_9i-220" style="edgeStyle=orthogonalEdgeStyle;rounded=0;orthogonalLoop=1;jettySize=auto;html=1;" edge="1" parent="jcb7iHF1FWQuhyqtT_9i-187" target="jcb7iHF1FWQuhyqtT_9i-217">
          <mxGeometry relative="1" as="geometry">
            <mxPoint x="336" y="845" as="sourcePoint" />
            <Array as="points">
              <mxPoint x="360" y="845" />
              <mxPoint x="360" y="750" />
            </Array>
          </mxGeometry>
        </mxCell>
        <mxCell id="jcb7iHF1FWQuhyqtT_9i-221" value="no" style="edgeLabel;html=1;align=center;verticalAlign=middle;resizable=0;points=[];" connectable="0" vertex="1" parent="jcb7iHF1FWQuhyqtT_9i-220">
          <mxGeometry x="0.2577" relative="1" as="geometry">
            <mxPoint y="31" as="offset" />
          </mxGeometry>
        </mxCell>
        <mxCell id="jcb7iHF1FWQuhyqtT_9i-222" value="Selanjutnya" style="rhombus;whiteSpace=wrap;html=1;" vertex="1" parent="jcb7iHF1FWQuhyqtT_9i-187">
          <mxGeometry x="238.5" y="805" width="95" height="80" as="geometry" />
        </mxCell>
        <mxCell id="jcb7iHF1FWQuhyqtT_9i-227" value="" style="edgeStyle=orthogonalEdgeStyle;rounded=0;orthogonalLoop=1;jettySize=auto;html=1;" edge="1" parent="jcb7iHF1FWQuhyqtT_9i-187" source="jcb7iHF1FWQuhyqtT_9i-228" target="jcb7iHF1FWQuhyqtT_9i-233">
          <mxGeometry relative="1" as="geometry" />
        </mxCell>
        <mxCell id="jcb7iHF1FWQuhyqtT_9i-228" value="Menampilkan halaman detail pesanan" style="whiteSpace=wrap;html=1;" vertex="1" parent="jcb7iHF1FWQuhyqtT_9i-187">
          <mxGeometry x="226" y="948" width="120" height="60" as="geometry" />
        </mxCell>
        <mxCell id="jcb7iHF1FWQuhyqtT_9i-229" value="" style="edgeStyle=orthogonalEdgeStyle;rounded=0;orthogonalLoop=1;jettySize=auto;html=1;" edge="1" parent="jcb7iHF1FWQuhyqtT_9i-187" source="jcb7iHF1FWQuhyqtT_9i-233" target="jcb7iHF1FWQuhyqtT_9i-235">
          <mxGeometry relative="1" as="geometry" />
        </mxCell>
        <mxCell id="jcb7iHF1FWQuhyqtT_9i-230" value="yes" style="edgeLabel;html=1;align=center;verticalAlign=middle;resizable=0;points=[];" connectable="0" vertex="1" parent="jcb7iHF1FWQuhyqtT_9i-229">
          <mxGeometry x="-0.4625" relative="1" as="geometry">
            <mxPoint y="5" as="offset" />
          </mxGeometry>
        </mxCell>
        <mxCell id="jcb7iHF1FWQuhyqtT_9i-231" style="edgeStyle=orthogonalEdgeStyle;rounded=0;orthogonalLoop=1;jettySize=auto;html=1;entryX=0;entryY=0.5;entryDx=0;entryDy=0;exitX=0;exitY=0.5;exitDx=0;exitDy=0;" edge="1" parent="jcb7iHF1FWQuhyqtT_9i-187" source="jcb7iHF1FWQuhyqtT_9i-233" target="jcb7iHF1FWQuhyqtT_9i-228">
          <mxGeometry relative="1" as="geometry" />
        </mxCell>
        <mxCell id="jcb7iHF1FWQuhyqtT_9i-232" value="no" style="edgeLabel;html=1;align=center;verticalAlign=middle;resizable=0;points=[];" connectable="0" vertex="1" parent="jcb7iHF1FWQuhyqtT_9i-231">
          <mxGeometry x="-0.1246" y="-4" relative="1" as="geometry">
            <mxPoint x="-4" y="-3" as="offset" />
          </mxGeometry>
        </mxCell>
        <mxCell id="jcb7iHF1FWQuhyqtT_9i-233" value="Apakah data sudah benar?" style="rhombus;whiteSpace=wrap;html=1;" vertex="1" parent="jcb7iHF1FWQuhyqtT_9i-187">
          <mxGeometry x="233.5" y="1041" width="105" height="62" as="geometry" />
        </mxCell>
        <mxCell id="jcb7iHF1FWQuhyqtT_9i-234" value="" style="edgeStyle=orthogonalEdgeStyle;rounded=0;orthogonalLoop=1;jettySize=auto;html=1;" edge="1" parent="jcb7iHF1FWQuhyqtT_9i-187" source="jcb7iHF1FWQuhyqtT_9i-235" target="jcb7iHF1FWQuhyqtT_9i-237">
          <mxGeometry relative="1" as="geometry" />
        </mxCell>
        <mxCell id="jcb7iHF1FWQuhyqtT_9i-235" value="Menampilkan halaman pembayaran" style="whiteSpace=wrap;html=1;" vertex="1" parent="jcb7iHF1FWQuhyqtT_9i-187">
          <mxGeometry x="226" y="1145" width="120" height="60" as="geometry" />
        </mxCell>
        <mxCell id="jcb7iHF1FWQuhyqtT_9i-236" value="" style="edgeStyle=orthogonalEdgeStyle;rounded=0;orthogonalLoop=1;jettySize=auto;html=1;" edge="1" parent="jcb7iHF1FWQuhyqtT_9i-187" source="jcb7iHF1FWQuhyqtT_9i-237" target="jcb7iHF1FWQuhyqtT_9i-238">
          <mxGeometry relative="1" as="geometry" />
        </mxCell>
        <mxCell id="jcb7iHF1FWQuhyqtT_9i-237" value="Upload bukti pembayaran" style="shape=parallelogram;perimeter=parallelogramPerimeter;whiteSpace=wrap;html=1;fixedSize=1;" vertex="1" parent="jcb7iHF1FWQuhyqtT_9i-187">
          <mxGeometry x="226" y="1234" width="120" height="60" as="geometry" />
        </mxCell>
        <mxCell id="jcb7iHF1FWQuhyqtT_9i-238" value="" style="ellipse;whiteSpace=wrap;html=1;" vertex="1" parent="jcb7iHF1FWQuhyqtT_9i-187">
          <mxGeometry x="266" y="1320" width="40" height="40" as="geometry" />
        </mxCell>
        <mxCell id="jcb7iHF1FWQuhyqtT_9i-241" value="Admin" style="swimlane;whiteSpace=wrap;html=1;" vertex="1" parent="1">
          <mxGeometry x="3110" y="10" width="290" height="970" as="geometry" />
        </mxCell>
        <mxCell id="jcb7iHF1FWQuhyqtT_9i-242" value="" style="edgeStyle=orthogonalEdgeStyle;rounded=0;orthogonalLoop=1;jettySize=auto;html=1;" edge="1" parent="jcb7iHF1FWQuhyqtT_9i-241" source="jcb7iHF1FWQuhyqtT_9i-243" target="jcb7iHF1FWQuhyqtT_9i-248">
          <mxGeometry relative="1" as="geometry" />
        </mxCell>
        <mxCell id="jcb7iHF1FWQuhyqtT_9i-243" value="Mengedit pembayaran konsultasi" style="rounded=0;whiteSpace=wrap;html=1;" vertex="1" parent="jcb7iHF1FWQuhyqtT_9i-241">
          <mxGeometry x="85" y="80.00000000000006" width="120" height="60" as="geometry" />
        </mxCell>
        <mxCell id="jcb7iHF1FWQuhyqtT_9i-244" value="" style="edgeStyle=orthogonalEdgeStyle;rounded=0;orthogonalLoop=1;jettySize=auto;html=1;entryX=0.5;entryY=0;entryDx=0;entryDy=0;" edge="1" parent="jcb7iHF1FWQuhyqtT_9i-241" source="jcb7iHF1FWQuhyqtT_9i-248" target="jcb7iHF1FWQuhyqtT_9i-250">
          <mxGeometry relative="1" as="geometry">
            <Array as="points">
              <mxPoint x="58" y="220" />
              <mxPoint x="58" y="280" />
            </Array>
          </mxGeometry>
        </mxCell>
        <mxCell id="jcb7iHF1FWQuhyqtT_9i-245" value="no" style="edgeLabel;html=1;align=center;verticalAlign=middle;resizable=0;points=[];" connectable="0" vertex="1" parent="jcb7iHF1FWQuhyqtT_9i-244">
          <mxGeometry x="-0.4622" y="-1" relative="1" as="geometry">
            <mxPoint as="offset" />
          </mxGeometry>
        </mxCell>
        <mxCell id="jcb7iHF1FWQuhyqtT_9i-246" style="edgeStyle=orthogonalEdgeStyle;rounded=0;orthogonalLoop=1;jettySize=auto;html=1;exitX=1;exitY=0.5;exitDx=0;exitDy=0;entryX=0.5;entryY=0;entryDx=0;entryDy=0;" edge="1" parent="jcb7iHF1FWQuhyqtT_9i-241" source="jcb7iHF1FWQuhyqtT_9i-248" target="jcb7iHF1FWQuhyqtT_9i-249">
          <mxGeometry relative="1" as="geometry" />
        </mxCell>
        <mxCell id="jcb7iHF1FWQuhyqtT_9i-247" value="yes" style="edgeLabel;html=1;align=center;verticalAlign=middle;resizable=0;points=[];" connectable="0" vertex="1" parent="jcb7iHF1FWQuhyqtT_9i-246">
          <mxGeometry x="-0.3187" y="-2" relative="1" as="geometry">
            <mxPoint as="offset" />
          </mxGeometry>
        </mxCell>
        <mxCell id="jcb7iHF1FWQuhyqtT_9i-248" value="Apakah pembayaran valid?" style="rhombus;whiteSpace=wrap;html=1;rounded=0;" vertex="1" parent="jcb7iHF1FWQuhyqtT_9i-241">
          <mxGeometry x="105" y="180.00000000000006" width="80" height="80" as="geometry" />
        </mxCell>
        <mxCell id="jcb7iHF1FWQuhyqtT_9i-249" value="Mengubah &lt;br&gt;status sukses" style="shape=parallelogram;perimeter=parallelogramPerimeter;whiteSpace=wrap;html=1;fixedSize=1;" vertex="1" parent="jcb7iHF1FWQuhyqtT_9i-241">
          <mxGeometry x="180" y="281" width="100" height="40" as="geometry" />
        </mxCell>
        <mxCell id="jcb7iHF1FWQuhyqtT_9i-250" value="Mengubah &lt;br&gt;status ditolak" style="shape=parallelogram;perimeter=parallelogramPerimeter;whiteSpace=wrap;html=1;fixedSize=1;rounded=0;" vertex="1" parent="jcb7iHF1FWQuhyqtT_9i-241">
          <mxGeometry x="5" y="281" width="105" height="40" as="geometry" />
        </mxCell>
        <mxCell id="jcb7iHF1FWQuhyqtT_9i-251" style="edgeStyle=orthogonalEdgeStyle;rounded=0;orthogonalLoop=1;jettySize=auto;html=1;exitX=0;exitY=0.5;exitDx=0;exitDy=0;" edge="1" parent="1" source="jcb7iHF1FWQuhyqtT_9i-269" target="jcb7iHF1FWQuhyqtT_9i-293">
          <mxGeometry relative="1" as="geometry">
            <mxPoint x="3020" y="615" as="targetPoint" />
          </mxGeometry>
        </mxCell>
        <mxCell id="jcb7iHF1FWQuhyqtT_9i-252" value="Psikolog" style="swimlane;whiteSpace=wrap;html=1;" vertex="1" parent="1">
          <mxGeometry x="3400" y="10" width="270" height="970" as="geometry" />
        </mxCell>
        <mxCell id="jcb7iHF1FWQuhyqtT_9i-253" value="" style="edgeStyle=orthogonalEdgeStyle;rounded=0;orthogonalLoop=1;jettySize=auto;html=1;" edge="1" parent="jcb7iHF1FWQuhyqtT_9i-252" source="jcb7iHF1FWQuhyqtT_9i-254" target="jcb7iHF1FWQuhyqtT_9i-259">
          <mxGeometry relative="1" as="geometry" />
        </mxCell>
        <mxCell id="jcb7iHF1FWQuhyqtT_9i-254" value="Menerima data konsultasi" style="whiteSpace=wrap;html=1;" vertex="1" parent="jcb7iHF1FWQuhyqtT_9i-252">
          <mxGeometry x="60" y="270" width="120" height="60" as="geometry" />
        </mxCell>
        <mxCell id="jcb7iHF1FWQuhyqtT_9i-255" value="" style="edgeStyle=orthogonalEdgeStyle;rounded=0;orthogonalLoop=1;jettySize=auto;html=1;" edge="1" parent="jcb7iHF1FWQuhyqtT_9i-252" source="jcb7iHF1FWQuhyqtT_9i-259" target="jcb7iHF1FWQuhyqtT_9i-267">
          <mxGeometry relative="1" as="geometry" />
        </mxCell>
        <mxCell id="jcb7iHF1FWQuhyqtT_9i-256" value="yes" style="edgeLabel;html=1;align=center;verticalAlign=middle;resizable=0;points=[];" connectable="0" vertex="1" parent="jcb7iHF1FWQuhyqtT_9i-255">
          <mxGeometry x="0.5462" relative="1" as="geometry">
            <mxPoint as="offset" />
          </mxGeometry>
        </mxCell>
        <mxCell id="jcb7iHF1FWQuhyqtT_9i-257" style="edgeStyle=orthogonalEdgeStyle;rounded=0;orthogonalLoop=1;jettySize=auto;html=1;entryX=0;entryY=0.5;entryDx=0;entryDy=0;" edge="1" parent="jcb7iHF1FWQuhyqtT_9i-252" source="jcb7iHF1FWQuhyqtT_9i-259" target="jcb7iHF1FWQuhyqtT_9i-254">
          <mxGeometry relative="1" as="geometry">
            <Array as="points">
              <mxPoint x="20" y="300" />
            </Array>
          </mxGeometry>
        </mxCell>
        <mxCell id="jcb7iHF1FWQuhyqtT_9i-258" value="no" style="edgeLabel;html=1;align=center;verticalAlign=middle;resizable=0;points=[];" connectable="0" vertex="1" parent="jcb7iHF1FWQuhyqtT_9i-257">
          <mxGeometry x="-0.2861" relative="1" as="geometry">
            <mxPoint as="offset" />
          </mxGeometry>
        </mxCell>
        <mxCell id="jcb7iHF1FWQuhyqtT_9i-259" value="Chat" style="rhombus;whiteSpace=wrap;html=1;" vertex="1" parent="jcb7iHF1FWQuhyqtT_9i-252">
          <mxGeometry x="20" y="370" width="80" height="50" as="geometry" />
        </mxCell>
        <mxCell id="jcb7iHF1FWQuhyqtT_9i-260" value="" style="edgeStyle=orthogonalEdgeStyle;rounded=0;orthogonalLoop=1;jettySize=auto;html=1;" edge="1" parent="jcb7iHF1FWQuhyqtT_9i-252" source="jcb7iHF1FWQuhyqtT_9i-264" target="jcb7iHF1FWQuhyqtT_9i-270">
          <mxGeometry relative="1" as="geometry" />
        </mxCell>
        <mxCell id="jcb7iHF1FWQuhyqtT_9i-261" value="yes" style="edgeLabel;html=1;align=center;verticalAlign=middle;resizable=0;points=[];" connectable="0" vertex="1" parent="jcb7iHF1FWQuhyqtT_9i-260">
          <mxGeometry x="0.5037" y="-1" relative="1" as="geometry">
            <mxPoint as="offset" />
          </mxGeometry>
        </mxCell>
        <mxCell id="jcb7iHF1FWQuhyqtT_9i-262" style="edgeStyle=orthogonalEdgeStyle;rounded=0;orthogonalLoop=1;jettySize=auto;html=1;exitX=1;exitY=0.5;exitDx=0;exitDy=0;entryX=1;entryY=0.5;entryDx=0;entryDy=0;" edge="1" parent="jcb7iHF1FWQuhyqtT_9i-252" source="jcb7iHF1FWQuhyqtT_9i-264" target="jcb7iHF1FWQuhyqtT_9i-254">
          <mxGeometry relative="1" as="geometry">
            <Array as="points">
              <mxPoint x="230" y="395" />
              <mxPoint x="230" y="300" />
            </Array>
          </mxGeometry>
        </mxCell>
        <mxCell id="jcb7iHF1FWQuhyqtT_9i-263" value="no" style="edgeLabel;html=1;align=center;verticalAlign=middle;resizable=0;points=[];" connectable="0" vertex="1" parent="jcb7iHF1FWQuhyqtT_9i-262">
          <mxGeometry x="-0.3587" y="-1" relative="1" as="geometry">
            <mxPoint as="offset" />
          </mxGeometry>
        </mxCell>
        <mxCell id="jcb7iHF1FWQuhyqtT_9i-264" value="Detail" style="rhombus;whiteSpace=wrap;html=1;" vertex="1" parent="jcb7iHF1FWQuhyqtT_9i-252">
          <mxGeometry x="140" y="370" width="80" height="50" as="geometry" />
        </mxCell>
        <mxCell id="jcb7iHF1FWQuhyqtT_9i-265" style="edgeStyle=orthogonalEdgeStyle;rounded=0;orthogonalLoop=1;jettySize=auto;html=1;" edge="1" parent="jcb7iHF1FWQuhyqtT_9i-252" source="jcb7iHF1FWQuhyqtT_9i-254" target="jcb7iHF1FWQuhyqtT_9i-264">
          <mxGeometry relative="1" as="geometry">
            <mxPoint x="180" y="370" as="targetPoint" />
          </mxGeometry>
        </mxCell>
        <mxCell id="jcb7iHF1FWQuhyqtT_9i-266" value="" style="edgeStyle=orthogonalEdgeStyle;rounded=0;orthogonalLoop=1;jettySize=auto;html=1;" edge="1" parent="jcb7iHF1FWQuhyqtT_9i-252" source="jcb7iHF1FWQuhyqtT_9i-267" target="jcb7iHF1FWQuhyqtT_9i-268">
          <mxGeometry relative="1" as="geometry" />
        </mxCell>
        <mxCell id="jcb7iHF1FWQuhyqtT_9i-267" value="Menampilkan halaman chat" style="whiteSpace=wrap;html=1;" vertex="1" parent="jcb7iHF1FWQuhyqtT_9i-252">
          <mxGeometry x="10" y="440" width="100" height="45" as="geometry" />
        </mxCell>
        <mxCell id="jcb7iHF1FWQuhyqtT_9i-268" value="input pesan" style="shape=parallelogram;perimeter=parallelogramPerimeter;whiteSpace=wrap;html=1;fixedSize=1;" vertex="1" parent="jcb7iHF1FWQuhyqtT_9i-252">
          <mxGeometry x="10" y="510" width="100" height="40" as="geometry" />
        </mxCell>
        <mxCell id="jcb7iHF1FWQuhyqtT_9i-269" value="Mengirimkan pesan" style="whiteSpace=wrap;html=1;" vertex="1" parent="jcb7iHF1FWQuhyqtT_9i-252">
          <mxGeometry x="10" y="637" width="100" height="50" as="geometry" />
        </mxCell>
        <mxCell id="jcb7iHF1FWQuhyqtT_9i-270" value="Menampilkan halaman detail" style="whiteSpace=wrap;html=1;" vertex="1" parent="jcb7iHF1FWQuhyqtT_9i-252">
          <mxGeometry x="135" y="440" width="90" height="45" as="geometry" />
        </mxCell>
        <mxCell id="jcb7iHF1FWQuhyqtT_9i-271" value="Pesan diterima" style="rounded=0;whiteSpace=wrap;html=1;" vertex="1" parent="jcb7iHF1FWQuhyqtT_9i-252">
          <mxGeometry x="77.5" y="845" width="110" height="50" as="geometry" />
        </mxCell>
        <mxCell id="jcb7iHF1FWQuhyqtT_9i-272" value="end" style="rounded=1;whiteSpace=wrap;html=1;" vertex="1" parent="jcb7iHF1FWQuhyqtT_9i-252">
          <mxGeometry x="100" y="920" width="65" height="30" as="geometry" />
        </mxCell>
        <mxCell id="jcb7iHF1FWQuhyqtT_9i-273" style="edgeStyle=orthogonalEdgeStyle;rounded=0;orthogonalLoop=1;jettySize=auto;html=1;" edge="1" parent="jcb7iHF1FWQuhyqtT_9i-252" source="jcb7iHF1FWQuhyqtT_9i-271" target="jcb7iHF1FWQuhyqtT_9i-272">
          <mxGeometry relative="1" as="geometry">
            <mxPoint x="140" y="820" as="targetPoint" />
          </mxGeometry>
        </mxCell>
        <mxCell id="jcb7iHF1FWQuhyqtT_9i-274" style="edgeStyle=orthogonalEdgeStyle;rounded=0;orthogonalLoop=1;jettySize=auto;html=1;exitX=1;exitY=0.5;exitDx=0;exitDy=0;entryX=1;entryY=0.5;entryDx=0;entryDy=0;" edge="1" parent="jcb7iHF1FWQuhyqtT_9i-252" source="jcb7iHF1FWQuhyqtT_9i-278" target="jcb7iHF1FWQuhyqtT_9i-267">
          <mxGeometry relative="1" as="geometry" />
        </mxCell>
        <mxCell id="jcb7iHF1FWQuhyqtT_9i-275" value="no" style="edgeLabel;html=1;align=center;verticalAlign=middle;resizable=0;points=[];" connectable="0" vertex="1" parent="jcb7iHF1FWQuhyqtT_9i-274">
          <mxGeometry x="-0.4955" y="1" relative="1" as="geometry">
            <mxPoint as="offset" />
          </mxGeometry>
        </mxCell>
        <mxCell id="jcb7iHF1FWQuhyqtT_9i-276" style="edgeStyle=orthogonalEdgeStyle;rounded=0;orthogonalLoop=1;jettySize=auto;html=1;entryX=0.5;entryY=0;entryDx=0;entryDy=0;" edge="1" parent="jcb7iHF1FWQuhyqtT_9i-252" source="jcb7iHF1FWQuhyqtT_9i-278" target="jcb7iHF1FWQuhyqtT_9i-269">
          <mxGeometry relative="1" as="geometry" />
        </mxCell>
        <mxCell id="jcb7iHF1FWQuhyqtT_9i-277" value="yes" style="edgeLabel;html=1;align=center;verticalAlign=middle;resizable=0;points=[];" connectable="0" vertex="1" parent="jcb7iHF1FWQuhyqtT_9i-276">
          <mxGeometry x="0.608" y="1" relative="1" as="geometry">
            <mxPoint as="offset" />
          </mxGeometry>
        </mxCell>
        <mxCell id="jcb7iHF1FWQuhyqtT_9i-278" value="kirim &lt;br&gt;pesan?" style="rhombus;whiteSpace=wrap;html=1;" vertex="1" parent="jcb7iHF1FWQuhyqtT_9i-252">
          <mxGeometry x="20" y="570" width="80" height="50" as="geometry" />
        </mxCell>
        <mxCell id="jcb7iHF1FWQuhyqtT_9i-279" value="" style="edgeStyle=orthogonalEdgeStyle;rounded=0;orthogonalLoop=1;jettySize=auto;html=1;" edge="1" parent="jcb7iHF1FWQuhyqtT_9i-252" source="jcb7iHF1FWQuhyqtT_9i-268" target="jcb7iHF1FWQuhyqtT_9i-278">
          <mxGeometry relative="1" as="geometry">
            <mxPoint x="60" y="590" as="targetPoint" />
          </mxGeometry>
        </mxCell>
        <mxCell id="jcb7iHF1FWQuhyqtT_9i-280" value="Pasien" style="swimlane;whiteSpace=wrap;html=1;" vertex="1" parent="1">
          <mxGeometry x="2900" y="10" width="210" height="970" as="geometry" />
        </mxCell>
        <mxCell id="jcb7iHF1FWQuhyqtT_9i-281" value="" style="edgeStyle=orthogonalEdgeStyle;rounded=0;orthogonalLoop=1;jettySize=auto;html=1;" edge="1" parent="jcb7iHF1FWQuhyqtT_9i-280" source="jcb7iHF1FWQuhyqtT_9i-282" target="jcb7iHF1FWQuhyqtT_9i-283">
          <mxGeometry relative="1" as="geometry" />
        </mxCell>
        <mxCell id="jcb7iHF1FWQuhyqtT_9i-282" value="" style="ellipse;whiteSpace=wrap;html=1;aspect=fixed;" vertex="1" parent="jcb7iHF1FWQuhyqtT_9i-280">
          <mxGeometry x="90" y="30" width="30" height="30" as="geometry" />
        </mxCell>
        <mxCell id="jcb7iHF1FWQuhyqtT_9i-283" value="Data Konsultasi dan pembayaran&amp;nbsp;" style="shape=document;whiteSpace=wrap;html=1;boundedLbl=1;" vertex="1" parent="jcb7iHF1FWQuhyqtT_9i-280">
          <mxGeometry x="57.5" y="80" width="95" height="60" as="geometry" />
        </mxCell>
        <mxCell id="jcb7iHF1FWQuhyqtT_9i-284" value="" style="edgeStyle=orthogonalEdgeStyle;rounded=0;orthogonalLoop=1;jettySize=auto;html=1;entryX=0.5;entryY=0;entryDx=0;entryDy=0;" edge="1" parent="jcb7iHF1FWQuhyqtT_9i-280" source="jcb7iHF1FWQuhyqtT_9i-285" target="jcb7iHF1FWQuhyqtT_9i-289">
          <mxGeometry relative="1" as="geometry" />
        </mxCell>
        <mxCell id="jcb7iHF1FWQuhyqtT_9i-285" value="input pesan" style="shape=parallelogram;perimeter=parallelogramPerimeter;whiteSpace=wrap;html=1;fixedSize=1;rounded=0;" vertex="1" parent="jcb7iHF1FWQuhyqtT_9i-280">
          <mxGeometry x="72.5" y="710" width="90" height="40" as="geometry" />
        </mxCell>
        <mxCell id="jcb7iHF1FWQuhyqtT_9i-286" value="Mengirim pesan" style="whiteSpace=wrap;html=1;rounded=0;" vertex="1" parent="jcb7iHF1FWQuhyqtT_9i-280">
          <mxGeometry x="57.5" y="840" width="120" height="60" as="geometry" />
        </mxCell>
        <mxCell id="jcb7iHF1FWQuhyqtT_9i-287" style="edgeStyle=orthogonalEdgeStyle;rounded=0;orthogonalLoop=1;jettySize=auto;html=1;entryX=0.5;entryY=0;entryDx=0;entryDy=0;" edge="1" parent="jcb7iHF1FWQuhyqtT_9i-280" source="jcb7iHF1FWQuhyqtT_9i-289" target="jcb7iHF1FWQuhyqtT_9i-286">
          <mxGeometry relative="1" as="geometry" />
        </mxCell>
        <mxCell id="jcb7iHF1FWQuhyqtT_9i-288" value="yes" style="edgeLabel;html=1;align=center;verticalAlign=middle;resizable=0;points=[];" connectable="0" vertex="1" parent="jcb7iHF1FWQuhyqtT_9i-287">
          <mxGeometry x="-0.6491" relative="1" as="geometry">
            <mxPoint as="offset" />
          </mxGeometry>
        </mxCell>
        <mxCell id="jcb7iHF1FWQuhyqtT_9i-289" value="kirim &lt;br&gt;pesan?" style="rhombus;whiteSpace=wrap;html=1;" vertex="1" parent="jcb7iHF1FWQuhyqtT_9i-280">
          <mxGeometry x="77.5" y="770" width="80" height="50" as="geometry" />
        </mxCell>
        <mxCell id="jcb7iHF1FWQuhyqtT_9i-290" style="edgeStyle=orthogonalEdgeStyle;rounded=0;orthogonalLoop=1;jettySize=auto;html=1;" edge="1" parent="1" source="jcb7iHF1FWQuhyqtT_9i-283" target="jcb7iHF1FWQuhyqtT_9i-243">
          <mxGeometry relative="1" as="geometry">
            <mxPoint x="3200" y="120.00000000000006" as="targetPoint" />
          </mxGeometry>
        </mxCell>
        <mxCell id="jcb7iHF1FWQuhyqtT_9i-291" value="" style="edgeStyle=orthogonalEdgeStyle;rounded=0;orthogonalLoop=1;jettySize=auto;html=1;entryX=0.5;entryY=0;entryDx=0;entryDy=0;" edge="1" parent="1" source="jcb7iHF1FWQuhyqtT_9i-249" target="jcb7iHF1FWQuhyqtT_9i-254">
          <mxGeometry relative="1" as="geometry">
            <Array as="points">
              <mxPoint x="3410" y="311" />
              <mxPoint x="3410" y="260" />
              <mxPoint x="3520" y="260" />
            </Array>
          </mxGeometry>
        </mxCell>
        <mxCell id="jcb7iHF1FWQuhyqtT_9i-292" style="edgeStyle=orthogonalEdgeStyle;rounded=0;orthogonalLoop=1;jettySize=auto;html=1;" edge="1" parent="1" source="jcb7iHF1FWQuhyqtT_9i-293" target="jcb7iHF1FWQuhyqtT_9i-285">
          <mxGeometry relative="1" as="geometry" />
        </mxCell>
        <mxCell id="jcb7iHF1FWQuhyqtT_9i-293" value="Menerima pesan" style="rounded=0;whiteSpace=wrap;html=1;" vertex="1" parent="1">
          <mxGeometry x="2957.5" y="635" width="120" height="60" as="geometry" />
        </mxCell>
        <mxCell id="jcb7iHF1FWQuhyqtT_9i-294" style="edgeStyle=orthogonalEdgeStyle;rounded=0;orthogonalLoop=1;jettySize=auto;html=1;" edge="1" parent="1" source="jcb7iHF1FWQuhyqtT_9i-286" target="jcb7iHF1FWQuhyqtT_9i-271">
          <mxGeometry relative="1" as="geometry">
            <mxPoint x="3460" y="770" as="targetPoint" />
          </mxGeometry>
        </mxCell>
        <mxCell id="jcb7iHF1FWQuhyqtT_9i-295" style="edgeStyle=orthogonalEdgeStyle;rounded=0;orthogonalLoop=1;jettySize=auto;html=1;entryX=0;entryY=0.5;entryDx=0;entryDy=0;" edge="1" parent="1" source="jcb7iHF1FWQuhyqtT_9i-289" target="jcb7iHF1FWQuhyqtT_9i-293">
          <mxGeometry relative="1" as="geometry">
            <Array as="points">
              <mxPoint x="2940" y="805" />
              <mxPoint x="2940" y="665" />
            </Array>
          </mxGeometry>
        </mxCell>
        <mxCell id="jcb7iHF1FWQuhyqtT_9i-296" value="Kasir" style="swimlane;whiteSpace=wrap;html=1;" vertex="1" parent="1">
          <mxGeometry x="2170" y="50" width="360" height="930" as="geometry" />
        </mxCell>
        <mxCell id="jcb7iHF1FWQuhyqtT_9i-297" value="" style="edgeStyle=orthogonalEdgeStyle;rounded=0;orthogonalLoop=1;jettySize=auto;html=1;" edge="1" parent="jcb7iHF1FWQuhyqtT_9i-296" source="jcb7iHF1FWQuhyqtT_9i-298" target="jcb7iHF1FWQuhyqtT_9i-303">
          <mxGeometry relative="1" as="geometry" />
        </mxCell>
        <mxCell id="jcb7iHF1FWQuhyqtT_9i-298" value="Mengedit pembayaran pesanan" style="rounded=0;whiteSpace=wrap;html=1;" vertex="1" parent="jcb7iHF1FWQuhyqtT_9i-296">
          <mxGeometry x="105" y="100.00000000000006" width="120" height="60" as="geometry" />
        </mxCell>
        <mxCell id="jcb7iHF1FWQuhyqtT_9i-299" value="" style="edgeStyle=orthogonalEdgeStyle;rounded=0;orthogonalLoop=1;jettySize=auto;html=1;" edge="1" parent="jcb7iHF1FWQuhyqtT_9i-296" source="jcb7iHF1FWQuhyqtT_9i-303">
          <mxGeometry relative="1" as="geometry">
            <Array as="points">
              <mxPoint x="70" y="232" />
              <mxPoint x="70" y="280" />
            </Array>
            <mxPoint x="70" y="280" as="targetPoint" />
          </mxGeometry>
        </mxCell>
        <mxCell id="jcb7iHF1FWQuhyqtT_9i-300" value="no" style="edgeLabel;html=1;align=center;verticalAlign=middle;resizable=0;points=[];" connectable="0" vertex="1" parent="jcb7iHF1FWQuhyqtT_9i-299">
          <mxGeometry x="-0.4622" y="-1" relative="1" as="geometry">
            <mxPoint x="-9" y="14" as="offset" />
          </mxGeometry>
        </mxCell>
        <mxCell id="jcb7iHF1FWQuhyqtT_9i-301" style="edgeStyle=orthogonalEdgeStyle;rounded=0;orthogonalLoop=1;jettySize=auto;html=1;exitX=1;exitY=0.5;exitDx=0;exitDy=0;" edge="1" parent="jcb7iHF1FWQuhyqtT_9i-296" target="jcb7iHF1FWQuhyqtT_9i-304">
          <mxGeometry relative="1" as="geometry">
            <mxPoint x="230" y="232" as="sourcePoint" />
            <mxPoint x="245" y="279" as="targetPoint" />
            <Array as="points">
              <mxPoint x="260" y="232" />
            </Array>
          </mxGeometry>
        </mxCell>
        <mxCell id="jcb7iHF1FWQuhyqtT_9i-302" value="yes" style="edgeLabel;html=1;align=center;verticalAlign=middle;resizable=0;points=[];" connectable="0" vertex="1" parent="jcb7iHF1FWQuhyqtT_9i-301">
          <mxGeometry x="-0.3187" y="-2" relative="1" as="geometry">
            <mxPoint x="2" y="12" as="offset" />
          </mxGeometry>
        </mxCell>
        <mxCell id="jcb7iHF1FWQuhyqtT_9i-303" value="&lt;br&gt;Apakah pembayaran valid?" style="rhombus;whiteSpace=wrap;html=1;rounded=0;" vertex="1" parent="jcb7iHF1FWQuhyqtT_9i-296">
          <mxGeometry x="100" y="192" width="130" height="80" as="geometry" />
        </mxCell>
        <mxCell id="jcb7iHF1FWQuhyqtT_9i-304" value="Mengubah &lt;br&gt;status sukses" style="shape=parallelogram;perimeter=parallelogramPerimeter;whiteSpace=wrap;html=1;fixedSize=1;" vertex="1" parent="jcb7iHF1FWQuhyqtT_9i-296">
          <mxGeometry x="202" y="280" width="114" height="40" as="geometry" />
        </mxCell>
        <mxCell id="jcb7iHF1FWQuhyqtT_9i-367" style="edgeStyle=orthogonalEdgeStyle;rounded=0;orthogonalLoop=1;jettySize=auto;html=1;exitX=0.5;exitY=1;exitDx=0;exitDy=0;entryX=0.5;entryY=0;entryDx=0;entryDy=0;" edge="1" parent="jcb7iHF1FWQuhyqtT_9i-296" source="jcb7iHF1FWQuhyqtT_9i-305" target="jcb7iHF1FWQuhyqtT_9i-366">
          <mxGeometry relative="1" as="geometry" />
        </mxCell>
        <mxCell id="jcb7iHF1FWQuhyqtT_9i-305" value="Mengubah &lt;br&gt;status ditolak" style="shape=parallelogram;perimeter=parallelogramPerimeter;whiteSpace=wrap;html=1;fixedSize=1;rounded=0;" vertex="1" parent="jcb7iHF1FWQuhyqtT_9i-296">
          <mxGeometry x="18" y="281" width="105" height="40" as="geometry" />
        </mxCell>
        <mxCell id="jcb7iHF1FWQuhyqtT_9i-359" style="edgeStyle=orthogonalEdgeStyle;rounded=0;orthogonalLoop=1;jettySize=auto;html=1;exitX=0.5;exitY=1;exitDx=0;exitDy=0;entryX=0.5;entryY=0;entryDx=0;entryDy=0;" edge="1" parent="jcb7iHF1FWQuhyqtT_9i-296" source="jcb7iHF1FWQuhyqtT_9i-353" target="jcb7iHF1FWQuhyqtT_9i-357">
          <mxGeometry relative="1" as="geometry" />
        </mxCell>
        <mxCell id="jcb7iHF1FWQuhyqtT_9i-353" value="Menerima data pembayaran" style="whiteSpace=wrap;html=1;" vertex="1" parent="jcb7iHF1FWQuhyqtT_9i-296">
          <mxGeometry x="198" y="360" width="111" height="50" as="geometry" />
        </mxCell>
        <mxCell id="jcb7iHF1FWQuhyqtT_9i-356" style="edgeStyle=orthogonalEdgeStyle;rounded=0;orthogonalLoop=1;jettySize=auto;html=1;exitX=0.5;exitY=1;exitDx=0;exitDy=0;entryX=0.553;entryY=0;entryDx=0;entryDy=0;entryPerimeter=0;" edge="1" parent="jcb7iHF1FWQuhyqtT_9i-296" source="jcb7iHF1FWQuhyqtT_9i-304" target="jcb7iHF1FWQuhyqtT_9i-353">
          <mxGeometry relative="1" as="geometry" />
        </mxCell>
        <mxCell id="jcb7iHF1FWQuhyqtT_9i-360" style="edgeStyle=orthogonalEdgeStyle;rounded=0;orthogonalLoop=1;jettySize=auto;html=1;exitX=0.5;exitY=1;exitDx=0;exitDy=0;entryX=0.5;entryY=0;entryDx=0;entryDy=0;" edge="1" parent="jcb7iHF1FWQuhyqtT_9i-296" source="jcb7iHF1FWQuhyqtT_9i-357" target="jcb7iHF1FWQuhyqtT_9i-358">
          <mxGeometry relative="1" as="geometry" />
        </mxCell>
        <mxCell id="jcb7iHF1FWQuhyqtT_9i-361" style="edgeStyle=orthogonalEdgeStyle;rounded=0;orthogonalLoop=1;jettySize=auto;html=1;exitX=1;exitY=0.5;exitDx=0;exitDy=0;entryX=1;entryY=0.5;entryDx=0;entryDy=0;" edge="1" parent="jcb7iHF1FWQuhyqtT_9i-296">
          <mxGeometry relative="1" as="geometry">
            <mxPoint x="293" y="458" as="sourcePoint" />
            <mxPoint x="308.99999999999955" y="383.9999999999999" as="targetPoint" />
            <Array as="points">
              <mxPoint x="330" y="459" />
              <mxPoint x="330" y="384" />
            </Array>
          </mxGeometry>
        </mxCell>
        <mxCell id="jcb7iHF1FWQuhyqtT_9i-357" value="Detail" style="rhombus;whiteSpace=wrap;html=1;" vertex="1" parent="jcb7iHF1FWQuhyqtT_9i-296">
          <mxGeometry x="213" y="434" width="80" height="50" as="geometry" />
        </mxCell>
        <mxCell id="jcb7iHF1FWQuhyqtT_9i-358" value="Menampilkan halaman detail" style="whiteSpace=wrap;html=1;" vertex="1" parent="jcb7iHF1FWQuhyqtT_9i-296">
          <mxGeometry x="208.5" y="527" width="90" height="45" as="geometry" />
        </mxCell>
        <mxCell id="jcb7iHF1FWQuhyqtT_9i-363" value="yes" style="edgeLabel;html=1;align=center;verticalAlign=middle;resizable=0;points=[];" connectable="0" vertex="1" parent="jcb7iHF1FWQuhyqtT_9i-296">
          <mxGeometry x="269.42857142857156" y="260" as="geometry">
            <mxPoint x="-17" y="243" as="offset" />
          </mxGeometry>
        </mxCell>
        <mxCell id="jcb7iHF1FWQuhyqtT_9i-366" value="Pesanan dibatalkan" style="whiteSpace=wrap;html=1;" vertex="1" parent="jcb7iHF1FWQuhyqtT_9i-296">
          <mxGeometry x="15" y="360" width="111" height="50" as="geometry" />
        </mxCell>
        <mxCell id="jcb7iHF1FWQuhyqtT_9i-371" style="edgeStyle=orthogonalEdgeStyle;rounded=0;orthogonalLoop=1;jettySize=auto;html=1;exitX=0.5;exitY=1;exitDx=0;exitDy=0;entryX=0.5;entryY=0;entryDx=0;entryDy=0;" edge="1" parent="jcb7iHF1FWQuhyqtT_9i-296" source="jcb7iHF1FWQuhyqtT_9i-368" target="jcb7iHF1FWQuhyqtT_9i-370">
          <mxGeometry relative="1" as="geometry" />
        </mxCell>
        <mxCell id="jcb7iHF1FWQuhyqtT_9i-368" value="Mengedit data pesanan" style="rounded=0;whiteSpace=wrap;html=1;" vertex="1" parent="jcb7iHF1FWQuhyqtT_9i-296">
          <mxGeometry x="105" y="620" width="120" height="60" as="geometry" />
        </mxCell>
        <mxCell id="jcb7iHF1FWQuhyqtT_9i-373" value="" style="edgeStyle=orthogonalEdgeStyle;rounded=0;orthogonalLoop=1;jettySize=auto;html=1;" edge="1" parent="jcb7iHF1FWQuhyqtT_9i-296" source="jcb7iHF1FWQuhyqtT_9i-370" target="jcb7iHF1FWQuhyqtT_9i-372">
          <mxGeometry relative="1" as="geometry" />
        </mxCell>
        <mxCell id="jcb7iHF1FWQuhyqtT_9i-375" style="edgeStyle=orthogonalEdgeStyle;rounded=0;orthogonalLoop=1;jettySize=auto;html=1;exitX=1;exitY=0.5;exitDx=0;exitDy=0;entryX=1;entryY=0.5;entryDx=0;entryDy=0;" edge="1" parent="jcb7iHF1FWQuhyqtT_9i-296" source="jcb7iHF1FWQuhyqtT_9i-370" target="jcb7iHF1FWQuhyqtT_9i-368">
          <mxGeometry relative="1" as="geometry" />
        </mxCell>
        <mxCell id="jcb7iHF1FWQuhyqtT_9i-370" value="Ubah status pesanan" style="rhombus;whiteSpace=wrap;html=1;" vertex="1" parent="jcb7iHF1FWQuhyqtT_9i-296">
          <mxGeometry x="107.5" y="708" width="115" height="50" as="geometry" />
        </mxCell>
        <mxCell id="jcb7iHF1FWQuhyqtT_9i-378" style="edgeStyle=orthogonalEdgeStyle;rounded=0;orthogonalLoop=1;jettySize=auto;html=1;exitX=0.5;exitY=1;exitDx=0;exitDy=0;entryX=0.5;entryY=0;entryDx=0;entryDy=0;" edge="1" parent="jcb7iHF1FWQuhyqtT_9i-296" source="jcb7iHF1FWQuhyqtT_9i-372" target="jcb7iHF1FWQuhyqtT_9i-377">
          <mxGeometry relative="1" as="geometry" />
        </mxCell>
        <mxCell id="jcb7iHF1FWQuhyqtT_9i-372" value="Mengubah status &lt;br&gt;&quot;Pesanan Selesai&quot;" style="shape=parallelogram;perimeter=parallelogramPerimeter;whiteSpace=wrap;html=1;fixedSize=1;" vertex="1" parent="jcb7iHF1FWQuhyqtT_9i-296">
          <mxGeometry x="92" y="796" width="142" height="46" as="geometry" />
        </mxCell>
        <mxCell id="jcb7iHF1FWQuhyqtT_9i-374" value="yes" style="edgeLabel;html=1;align=center;verticalAlign=middle;resizable=0;points=[];" connectable="0" vertex="1" parent="jcb7iHF1FWQuhyqtT_9i-296">
          <mxGeometry x="181.99857142857172" y="530" as="geometry">
            <mxPoint x="-17" y="243" as="offset" />
          </mxGeometry>
        </mxCell>
        <mxCell id="jcb7iHF1FWQuhyqtT_9i-376" value="no" style="edgeLabel;html=1;align=center;verticalAlign=middle;resizable=0;points=[];" connectable="0" vertex="1" parent="jcb7iHF1FWQuhyqtT_9i-296">
          <mxGeometry x="-25.004285714285743" y="550.0000000000001" as="geometry">
            <mxPoint x="260" y="165" as="offset" />
          </mxGeometry>
        </mxCell>
        <mxCell id="jcb7iHF1FWQuhyqtT_9i-377" value="end" style="rounded=1;whiteSpace=wrap;html=1;" vertex="1" parent="jcb7iHF1FWQuhyqtT_9i-296">
          <mxGeometry x="132.5" y="878" width="65" height="30" as="geometry" />
        </mxCell>
        <mxCell id="jcb7iHF1FWQuhyqtT_9i-335" value="Pelanggan" style="swimlane;whiteSpace=wrap;html=1;" vertex="1" parent="1">
          <mxGeometry x="1970" y="50" width="199" height="930" as="geometry" />
        </mxCell>
        <mxCell id="jcb7iHF1FWQuhyqtT_9i-336" value="" style="edgeStyle=orthogonalEdgeStyle;rounded=0;orthogonalLoop=1;jettySize=auto;html=1;" edge="1" parent="jcb7iHF1FWQuhyqtT_9i-335" target="jcb7iHF1FWQuhyqtT_9i-338">
          <mxGeometry relative="1" as="geometry">
            <mxPoint x="98.25" y="72" as="sourcePoint" />
          </mxGeometry>
        </mxCell>
        <mxCell id="jcb7iHF1FWQuhyqtT_9i-337" value="" style="ellipse;whiteSpace=wrap;html=1;aspect=fixed;" vertex="1" parent="jcb7iHF1FWQuhyqtT_9i-335">
          <mxGeometry x="84.25" y="42" width="30" height="30" as="geometry" />
        </mxCell>
        <mxCell id="jcb7iHF1FWQuhyqtT_9i-338" value="&lt;br&gt;Data pesanan dan pembayaran&lt;br&gt;&amp;nbsp;" style="shape=document;whiteSpace=wrap;html=1;boundedLbl=1;" vertex="1" parent="jcb7iHF1FWQuhyqtT_9i-335">
          <mxGeometry x="44.25" y="100" width="109.5" height="60" as="geometry" />
        </mxCell>
        <mxCell id="jcb7iHF1FWQuhyqtT_9i-348" value="Menerima pesanan" style="rounded=0;whiteSpace=wrap;html=1;" vertex="1" parent="jcb7iHF1FWQuhyqtT_9i-335">
          <mxGeometry x="38" y="620" width="120" height="60" as="geometry" />
        </mxCell>
        <mxCell id="jcb7iHF1FWQuhyqtT_9i-345" style="edgeStyle=orthogonalEdgeStyle;rounded=0;orthogonalLoop=1;jettySize=auto;html=1;" edge="1" parent="1" source="jcb7iHF1FWQuhyqtT_9i-338" target="jcb7iHF1FWQuhyqtT_9i-298">
          <mxGeometry relative="1" as="geometry">
            <mxPoint x="2267" y="172.00000000000006" as="targetPoint" />
          </mxGeometry>
        </mxCell>
        <mxCell id="jcb7iHF1FWQuhyqtT_9i-362" value="no" style="edgeLabel;html=1;align=center;verticalAlign=middle;resizable=0;points=[];" connectable="0" vertex="1" parent="1">
          <mxGeometry x="2241.285714285714" y="330.0000000000001" as="geometry">
            <mxPoint x="260" y="165" as="offset" />
          </mxGeometry>
        </mxCell>
        <mxCell id="jcb7iHF1FWQuhyqtT_9i-369" style="edgeStyle=orthogonalEdgeStyle;rounded=0;orthogonalLoop=1;jettySize=auto;html=1;exitX=1;exitY=0.5;exitDx=0;exitDy=0;entryX=0;entryY=0.5;entryDx=0;entryDy=0;" edge="1" parent="1" source="jcb7iHF1FWQuhyqtT_9i-348" target="jcb7iHF1FWQuhyqtT_9i-368">
          <mxGeometry relative="1" as="geometry" />
        </mxCell>
        <mxCell id="jcb7iHF1FWQuhyqtT_9i-379" value="Admin" style="swimlane;whiteSpace=wrap;html=1;startSize=23;" vertex="1" parent="1">
          <mxGeometry x="2530" y="50" width="170" height="930" as="geometry" />
        </mxCell>
        <mxCell id="jcb7iHF1FWQuhyqtT_9i-381" value="Melihat data pembayaran" style="whiteSpace=wrap;html=1;" vertex="1" parent="jcb7iHF1FWQuhyqtT_9i-379">
          <mxGeometry x="30.5" y="105" width="111" height="50" as="geometry" />
        </mxCell>
        <mxCell id="jcb7iHF1FWQuhyqtT_9i-383" value="Melihat data pesanan" style="whiteSpace=wrap;html=1;" vertex="1" parent="jcb7iHF1FWQuhyqtT_9i-379">
          <mxGeometry x="30.5" y="615" width="111" height="50" as="geometry" />
        </mxCell>
        <mxCell id="jcb7iHF1FWQuhyqtT_9i-382" style="edgeStyle=orthogonalEdgeStyle;rounded=0;orthogonalLoop=1;jettySize=auto;html=1;exitX=1;exitY=0.5;exitDx=0;exitDy=0;entryX=0;entryY=0.5;entryDx=0;entryDy=0;" edge="1" parent="1" source="jcb7iHF1FWQuhyqtT_9i-298" target="jcb7iHF1FWQuhyqtT_9i-381">
          <mxGeometry relative="1" as="geometry" />
        </mxCell>
      </root>
    </mxGraphModel>
  </diagram>
</mxfile>
